<svg width="974" height="291" viewBox="0 0 974 291" fill="none" xmlns="http://www.w3.org/2000/svg">
<path d="M290.182 186.652H281.891L168.582 73.3433C167.352 72.003 165.857 70.933 164.192 70.2009C162.527 69.4689 160.728 69.0909 158.909 69.0909C157.09 69.0909 155.291 69.4689 153.626 70.2009C151.961 70.933 150.466 72.003 149.236 73.3433L108.473 114.107C107.181 115.373 105.445 116.082 103.636 116.082C101.828 116.082 100.092 115.373 98.8 114.107L88.4364 103.743L99.4909 92.6887L158.909 33.2706L218.327 92.6887C220.879 95.2923 224.355 96.7823 228 96.8342H290.182C293.847 96.8342 297.361 95.3784 299.953 92.7869C302.544 90.1955 304 86.6808 304 83.016C304 79.3512 302.544 75.8365 299.953 73.2451C297.361 70.6537 293.847 69.1978 290.182 69.1978H233.527L168.582 4.25238C167.352 2.91213 165.857 1.84205 164.192 1.11003C162.527 0.378001 160.728 0 158.909 0C157.09 0 155.291 0.378001 153.626 1.11003C151.961 1.84205 150.466 2.91213 149.236 4.25238L84.2909 69.1978H13.8182C10.1534 69.1978 6.63866 70.6537 4.04725 73.2451C1.45584 75.8365 0 79.3512 0 83.016C0 86.6808 1.45584 90.1955 4.04725 92.7869C6.63866 95.3784 10.1534 96.8342 13.8182 96.8342H59.4182C57.9586 100.474 57.6395 104.471 58.5032 108.296C59.367 112.121 61.3727 115.593 64.2545 118.252L79.4545 133.452C85.9121 139.782 94.594 143.327 103.636 143.327C112.679 143.327 121.361 139.782 127.818 133.452L158.909 102.361L266.691 210.143C269.242 212.747 272.719 214.237 276.364 214.289H290.182C293.847 214.289 297.361 212.833 299.953 210.242C302.544 207.65 304 204.135 304 200.471C304 196.806 302.544 193.291 299.953 190.7C297.361 188.108 293.847 186.652 290.182 186.652Z" fill="#FFE100"/>
<path d="M203.127 170.071C200.466 168.075 197.175 167.106 193.857 167.342C190.539 167.577 187.418 169.002 185.066 171.354C182.714 173.706 181.289 176.828 181.053 180.146C180.817 183.463 181.786 186.755 183.782 189.416L232.146 237.78C233.375 239.12 234.87 240.19 236.535 240.922C238.2 241.654 239.999 242.032 241.818 242.032C243.637 242.032 245.436 241.654 247.101 240.922C248.767 240.19 250.261 239.12 251.491 237.78C252.831 236.55 253.901 235.055 254.633 233.39C255.365 231.725 255.743 229.926 255.743 228.107C255.743 226.288 255.365 224.489 254.633 222.824C253.901 221.159 252.831 219.664 251.491 218.434L203.127 170.071Z" fill="#FFE100"/>
<path d="M161.673 190.798C159.012 188.802 155.72 187.833 152.402 188.069C149.084 188.305 145.963 189.729 143.611 192.081C141.259 194.433 139.834 197.555 139.599 200.873C139.363 204.191 140.332 207.482 142.327 210.143L190.691 258.507C191.921 259.847 193.416 260.917 195.081 261.649C196.746 262.381 198.545 262.759 200.364 262.759C202.183 262.759 203.982 262.381 205.647 261.649C207.312 260.917 208.807 259.847 210.036 258.507C211.377 257.277 212.447 255.782 213.179 254.117C213.911 252.452 214.289 250.653 214.289 248.834C214.289 247.015 213.911 245.216 213.179 243.551C212.447 241.886 211.377 240.391 210.036 239.161L161.673 190.798Z" fill="#FFE100"/>
<path d="M113.309 204.616C110.648 202.62 107.357 201.651 104.039 201.887C100.721 202.123 97.5995 203.548 95.2475 205.9C92.8955 208.252 91.4708 211.373 91.235 214.691C90.9992 218.009 91.9681 221.301 93.9639 223.962L142.327 272.325C143.557 273.665 145.052 274.735 146.717 275.468C148.382 276.2 150.181 276.578 152 276.578C153.819 276.578 155.618 276.2 157.283 275.468C158.948 274.735 160.443 273.665 161.673 272.325C163.013 271.095 164.083 269.601 164.815 267.936C165.547 266.27 165.925 264.471 165.925 262.652C165.925 260.834 165.547 259.034 164.815 257.369C164.083 255.704 163.013 254.209 161.673 252.98L113.309 204.616Z" fill="#FFE100"/>
<path d="M37.3091 190.798C34.7578 188.194 31.2812 186.704 27.6364 186.652H13.8182C10.1534 186.652 6.63866 188.108 4.04725 190.7C1.45584 193.291 0 196.806 0 200.471C0 204.135 1.45584 207.65 4.04725 210.241C6.63866 212.833 10.1534 214.289 13.8182 214.289H22.1091L93.9636 286.143C95.1933 287.484 96.6882 288.554 98.3533 289.286C100.018 290.018 101.817 290.396 103.636 290.396C105.455 290.396 107.254 290.018 108.919 289.286C110.585 288.554 112.079 287.484 113.309 286.143C114.649 284.914 115.719 283.419 116.451 281.754C117.183 280.089 117.561 278.289 117.561 276.471C117.561 274.652 117.183 272.853 116.451 271.187C115.719 269.522 114.649 268.027 113.309 266.798L37.3091 190.798Z" fill="#FFE100"/>
<path d="M347.422 73.418H369.541V98.4668H393.711V73.418H415.928V145H393.711V116.045H369.541V145H347.422V73.418ZM447.422 109.941L428.428 107.939C429.144 104.619 430.169 102.015 431.504 100.127C432.871 98.2064 434.824 96.5462 437.363 95.1465C439.186 94.1374 441.693 93.3561 444.883 92.8027C448.073 92.2493 451.523 91.9727 455.234 91.9727C461.191 91.9727 465.977 92.3145 469.59 92.998C473.203 93.6491 476.214 95.0326 478.623 97.1484C480.316 98.6133 481.65 100.697 482.627 103.398C483.604 106.068 484.092 108.623 484.092 111.064V133.965C484.092 136.406 484.238 138.327 484.531 139.727C484.857 141.094 485.54 142.852 486.582 145H467.93C467.181 143.665 466.693 142.656 466.465 141.973C466.237 141.257 466.009 140.15 465.781 138.652C463.177 141.159 460.589 142.949 458.018 144.023C454.502 145.456 450.417 146.172 445.762 146.172C439.577 146.172 434.873 144.74 431.65 141.875C428.46 139.01 426.865 135.479 426.865 131.279C426.865 127.34 428.021 124.102 430.332 121.562C432.643 119.023 436.908 117.135 443.125 115.898C450.579 114.401 455.413 113.359 457.627 112.773C459.84 112.155 462.184 111.357 464.658 110.381C464.658 107.939 464.154 106.23 463.145 105.254C462.135 104.277 460.361 103.789 457.822 103.789C454.567 103.789 452.126 104.31 450.498 105.352C449.229 106.165 448.203 107.695 447.422 109.941ZM464.658 120.391C461.924 121.367 459.076 122.23 456.113 122.979C452.077 124.053 449.521 125.111 448.447 126.152C447.34 127.227 446.787 128.447 446.787 129.814C446.787 131.377 447.324 132.663 448.398 133.672C449.505 134.648 451.117 135.137 453.232 135.137C455.446 135.137 457.497 134.6 459.385 133.525C461.305 132.451 462.656 131.149 463.438 129.619C464.251 128.057 464.658 126.038 464.658 123.564V120.391ZM496.006 93.1445H514.512V101.592C517.279 98.1413 520.078 95.6836 522.91 94.2188C525.742 92.7214 529.193 91.9727 533.262 91.9727C538.763 91.9727 543.06 93.6165 546.152 96.9043C549.277 100.16 550.84 105.205 550.84 112.041V145H530.869V116.484C530.869 113.229 530.267 110.934 529.062 109.6C527.858 108.232 526.165 107.549 523.984 107.549C521.576 107.549 519.622 108.46 518.125 110.283C516.628 112.106 515.879 115.378 515.879 120.098V145H496.006V93.1445ZM617.295 73.418V145H598.691V137.334C596.087 140.589 593.711 142.786 591.562 143.926C588.698 145.423 585.508 146.172 581.992 146.172C574.928 146.172 569.525 143.486 565.781 138.115C562.07 132.744 560.215 126.217 560.215 118.535C560.215 109.941 562.266 103.366 566.367 98.8086C570.501 94.2513 575.742 91.9727 582.09 91.9727C585.182 91.9727 587.982 92.4935 590.488 93.5352C593.027 94.5768 595.273 96.1393 597.227 98.2227V73.418H617.295ZM597.373 118.926C597.373 114.857 596.51 111.829 594.785 109.844C593.06 107.826 590.879 106.816 588.242 106.816C585.931 106.816 583.994 107.777 582.432 109.697C580.869 111.618 580.088 114.84 580.088 119.365C580.088 123.597 580.885 126.706 582.48 128.691C584.108 130.645 586.11 131.621 588.486 131.621C591.025 131.621 593.141 130.628 594.834 128.643C596.527 126.657 597.373 123.418 597.373 118.926ZM627.158 93.1445H675.254V104.766L649.082 131.426H676.865V145H625.205V132.109L650.01 106.719H627.158V93.1445ZM384.678 214.736L403.574 216.885C402.533 220.824 400.824 224.242 398.447 227.139C396.071 230.003 393.027 232.233 389.316 233.828C385.638 235.423 380.951 236.221 375.254 236.221C369.753 236.221 365.163 235.716 361.484 234.707C357.839 233.665 354.697 232.005 352.061 229.727C349.424 227.415 347.357 224.714 345.859 221.621C344.362 218.529 343.613 214.427 343.613 209.316C343.613 203.978 344.525 199.535 346.348 195.986C347.682 193.382 349.505 191.055 351.816 189.004C354.128 186.921 356.504 185.374 358.945 184.365C362.819 182.77 367.783 181.973 373.838 181.973C382.301 181.973 388.747 183.486 393.174 186.514C397.633 189.541 400.758 193.968 402.549 199.795L383.848 202.285C383.262 200.072 382.188 198.411 380.625 197.305C379.095 196.165 377.028 195.596 374.424 195.596C371.136 195.596 368.467 196.784 366.416 199.16C364.398 201.504 363.389 205.068 363.389 209.854C363.389 214.118 364.398 217.357 366.416 219.57C368.434 221.784 371.006 222.891 374.131 222.891C376.735 222.891 378.916 222.223 380.674 220.889C382.464 219.554 383.799 217.503 384.678 214.736ZM410.264 209.219C410.264 201.309 412.933 194.798 418.271 189.688C423.61 184.544 430.82 181.973 439.902 181.973C450.286 181.973 458.132 184.984 463.438 191.006C467.702 195.856 469.834 201.829 469.834 208.926C469.834 216.901 467.181 223.444 461.875 228.555C456.602 233.633 449.294 236.172 439.951 236.172C431.618 236.172 424.88 234.056 419.736 229.824C413.421 224.583 410.264 217.715 410.264 209.219ZM430.186 209.17C430.186 213.792 431.113 217.21 432.969 219.424C434.857 221.637 437.217 222.744 440.049 222.744C442.913 222.744 445.257 221.654 447.08 219.473C448.936 217.292 449.863 213.792 449.863 208.975C449.863 204.482 448.936 201.146 447.08 198.965C445.225 196.751 442.93 195.645 440.195 195.645C437.298 195.645 434.906 196.768 433.018 199.014C431.13 201.227 430.186 204.613 430.186 209.17ZM479.6 183.145H498.203V191.641C499.993 187.962 501.833 185.439 503.721 184.072C505.641 182.673 508.001 181.973 510.801 181.973C513.73 181.973 516.937 182.884 520.42 184.707L514.268 198.867C511.924 197.891 510.068 197.402 508.701 197.402C506.097 197.402 504.079 198.477 502.646 200.625C500.596 203.652 499.57 209.316 499.57 217.617V235H479.6V183.145ZM523.936 254.727V183.145H542.539V190.811C545.111 187.588 547.471 185.407 549.619 184.268C552.516 182.738 555.723 181.973 559.238 181.973C566.172 181.973 571.527 184.626 575.303 189.932C579.111 195.238 581.016 201.797 581.016 209.609C581.016 218.236 578.949 224.827 574.814 229.385C570.68 233.91 565.456 236.172 559.141 236.172C556.081 236.172 553.281 235.651 550.742 234.609C548.236 233.568 545.99 232.021 544.004 229.971V254.727H523.936ZM543.857 209.219C543.857 213.32 544.72 216.364 546.445 218.35C548.171 220.335 550.352 221.328 552.988 221.328C555.299 221.328 557.236 220.384 558.799 218.496C560.361 216.576 561.143 213.337 561.143 208.779C561.143 204.58 560.329 201.504 558.701 199.551C557.074 197.565 555.088 196.572 552.744 196.572C550.205 196.572 548.089 197.565 546.396 199.551C544.704 201.536 543.857 204.759 543.857 209.219ZM588.096 209.219C588.096 201.309 590.765 194.798 596.104 189.688C601.442 184.544 608.652 181.973 617.734 181.973C628.118 181.973 635.964 184.984 641.27 191.006C645.534 195.856 647.666 201.829 647.666 208.926C647.666 216.901 645.013 223.444 639.707 228.555C634.434 233.633 627.126 236.172 617.783 236.172C609.45 236.172 602.712 234.056 597.568 229.824C591.253 224.583 588.096 217.715 588.096 209.219ZM608.018 209.17C608.018 213.792 608.945 217.21 610.801 219.424C612.689 221.637 615.049 222.744 617.881 222.744C620.745 222.744 623.089 221.654 624.912 219.473C626.768 217.292 627.695 213.792 627.695 208.975C627.695 204.482 626.768 201.146 624.912 198.965C623.057 196.751 620.762 195.645 618.027 195.645C615.13 195.645 612.738 196.768 610.85 199.014C608.962 201.227 608.018 204.613 608.018 209.17ZM657.432 183.145H676.035V191.641C677.826 187.962 679.665 185.439 681.553 184.072C683.473 182.673 685.833 181.973 688.633 181.973C691.562 181.973 694.769 182.884 698.252 184.707L692.1 198.867C689.756 197.891 687.9 197.402 686.533 197.402C683.929 197.402 681.911 198.477 680.479 200.625C678.428 203.652 677.402 209.316 677.402 217.617V235H657.432V183.145ZM719.785 199.941L700.791 197.939C701.507 194.619 702.533 192.015 703.867 190.127C705.234 188.206 707.188 186.546 709.727 185.146C711.549 184.137 714.056 183.356 717.246 182.803C720.436 182.249 723.887 181.973 727.598 181.973C733.555 181.973 738.34 182.314 741.953 182.998C745.566 183.649 748.577 185.033 750.986 187.148C752.679 188.613 754.014 190.697 754.99 193.398C755.967 196.068 756.455 198.623 756.455 201.064V223.965C756.455 226.406 756.602 228.327 756.895 229.727C757.22 231.094 757.904 232.852 758.945 235H740.293C739.544 233.665 739.056 232.656 738.828 231.973C738.6 231.257 738.372 230.15 738.145 228.652C735.54 231.159 732.952 232.949 730.381 234.023C726.865 235.456 722.78 236.172 718.125 236.172C711.94 236.172 707.236 234.74 704.014 231.875C700.824 229.01 699.229 225.479 699.229 221.279C699.229 217.34 700.384 214.102 702.695 211.562C705.007 209.023 709.271 207.135 715.488 205.898C722.943 204.401 727.777 203.359 729.99 202.773C732.204 202.155 734.548 201.357 737.021 200.381C737.021 197.939 736.517 196.23 735.508 195.254C734.499 194.277 732.725 193.789 730.186 193.789C726.93 193.789 724.489 194.31 722.861 195.352C721.592 196.165 720.566 197.695 719.785 199.941ZM737.021 210.391C734.287 211.367 731.439 212.23 728.477 212.979C724.44 214.053 721.885 215.111 720.811 216.152C719.704 217.227 719.15 218.447 719.15 219.814C719.15 221.377 719.688 222.663 720.762 223.672C721.868 224.648 723.48 225.137 725.596 225.137C727.809 225.137 729.86 224.6 731.748 223.525C733.669 222.451 735.02 221.149 735.801 219.619C736.615 218.057 737.021 216.038 737.021 213.564V210.391ZM792.344 163.418V183.145H803.281V197.646H792.344V216.055C792.344 218.268 792.555 219.733 792.979 220.449C793.63 221.556 794.769 222.109 796.396 222.109C797.861 222.109 799.912 221.686 802.549 220.84L804.014 234.561C799.098 235.635 794.508 236.172 790.244 236.172C785.296 236.172 781.65 235.537 779.307 234.268C776.963 232.998 775.221 231.077 774.082 228.506C772.975 225.902 772.422 221.702 772.422 215.908V197.646H765.098V183.145H772.422V173.623L792.344 163.418ZM813.535 163.418H833.408V176.943H813.535V163.418ZM813.535 183.145H833.408V235H813.535V183.145ZM843.662 209.219C843.662 201.309 846.331 194.798 851.67 189.688C857.008 184.544 864.219 181.973 873.301 181.973C883.685 181.973 891.53 184.984 896.836 191.006C901.1 195.856 903.232 201.829 903.232 208.926C903.232 216.901 900.579 223.444 895.273 228.555C890 233.633 882.692 236.172 873.35 236.172C865.016 236.172 858.278 234.056 853.135 229.824C846.82 224.583 843.662 217.715 843.662 209.219ZM863.584 209.17C863.584 213.792 864.512 217.21 866.367 219.424C868.255 221.637 870.615 222.744 873.447 222.744C876.312 222.744 878.656 221.654 880.479 219.473C882.334 217.292 883.262 213.792 883.262 208.975C883.262 204.482 882.334 201.146 880.479 198.965C878.623 196.751 876.328 195.645 873.594 195.645C870.697 195.645 868.304 196.768 866.416 199.014C864.528 201.227 863.584 204.613 863.584 209.17ZM912.803 183.145H931.309V191.592C934.076 188.141 936.875 185.684 939.707 184.219C942.539 182.721 945.99 181.973 950.059 181.973C955.56 181.973 959.857 183.617 962.949 186.904C966.074 190.16 967.637 195.205 967.637 202.041V235H947.666V206.484C947.666 203.229 947.064 200.934 945.859 199.6C944.655 198.232 942.962 197.549 940.781 197.549C938.372 197.549 936.419 198.46 934.922 200.283C933.424 202.106 932.676 205.378 932.676 210.098V235H912.803V183.145Z" fill="black"/>
</svg>
