<svg width="304" height="291" viewBox="0 0 304 291" fill="none" xmlns="http://www.w3.org/2000/svg">
<path d="M290.182 186.652H281.891L168.582 73.3433C167.352 72.003 165.857 70.933 164.192 70.2009C162.527 69.4689 160.728 69.0909 158.909 69.0909C157.09 69.0909 155.291 69.4689 153.626 70.2009C151.961 70.933 150.466 72.003 149.236 73.3433L108.473 114.107C107.181 115.373 105.445 116.082 103.636 116.082C101.828 116.082 100.092 115.373 98.8 114.107L88.4364 103.743L99.4909 92.6887L158.909 33.2706L218.327 92.6887C220.879 95.2923 224.355 96.7823 228 96.8342H290.182C293.847 96.8342 297.361 95.3784 299.953 92.7869C302.544 90.1955 304 86.6808 304 83.016C304 79.3512 302.544 75.8365 299.953 73.2451C297.361 70.6537 293.847 69.1978 290.182 69.1978H233.527L168.582 4.25238C167.352 2.91213 165.857 1.84205 164.192 1.11003C162.527 0.378001 160.728 0 158.909 0C157.09 0 155.291 0.378001 153.626 1.11003C151.961 1.84205 150.466 2.91213 149.236 4.25238L84.2909 69.1978H13.8182C10.1534 69.1978 6.63866 70.6537 4.04725 73.2451C1.45584 75.8365 0 79.3512 0 83.016C0 86.6808 1.45584 90.1955 4.04725 92.7869C6.63866 95.3784 10.1534 96.8342 13.8182 96.8342H59.4182C57.9586 100.474 57.6395 104.471 58.5032 108.296C59.367 112.121 61.3727 115.593 64.2545 118.252L79.4545 133.452C85.9121 139.782 94.594 143.327 103.636 143.327C112.679 143.327 121.361 139.782 127.818 133.452L158.909 102.361L266.691 210.143C269.242 212.747 272.719 214.237 276.364 214.289H290.182C293.847 214.289 297.361 212.833 299.953 210.242C302.544 207.65 304 204.135 304 200.471C304 196.806 302.544 193.291 299.953 190.7C297.361 188.108 293.847 186.652 290.182 186.652Z" fill="#FFE100"/>
<path d="M203.127 170.071C200.466 168.075 197.175 167.106 193.857 167.342C190.539 167.577 187.418 169.002 185.066 171.354C182.714 173.706 181.289 176.828 181.053 180.146C180.817 183.463 181.786 186.755 183.782 189.416L232.146 237.78C233.375 239.12 234.87 240.19 236.535 240.922C238.2 241.654 239.999 242.032 241.818 242.032C243.637 242.032 245.436 241.654 247.101 240.922C248.767 240.19 250.261 239.12 251.491 237.78C252.831 236.55 253.901 235.055 254.633 233.39C255.365 231.725 255.743 229.926 255.743 228.107C255.743 226.288 255.365 224.489 254.633 222.824C253.901 221.159 252.831 219.664 251.491 218.434L203.127 170.071Z" fill="#FFE100"/>
<path d="M161.673 190.798C159.012 188.802 155.72 187.833 152.402 188.069C149.084 188.305 145.963 189.729 143.611 192.081C141.259 194.433 139.834 197.555 139.599 200.873C139.363 204.191 140.332 207.482 142.327 210.143L190.691 258.507C191.921 259.847 193.416 260.917 195.081 261.649C196.746 262.381 198.545 262.759 200.364 262.759C202.183 262.759 203.982 262.381 205.647 261.649C207.312 260.917 208.807 259.847 210.036 258.507C211.377 257.277 212.447 255.782 213.179 254.117C213.911 252.452 214.289 250.653 214.289 248.834C214.289 247.015 213.911 245.216 213.179 243.551C212.447 241.886 211.377 240.391 210.036 239.161L161.673 190.798Z" fill="#FFE100"/>
<path d="M113.309 204.616C110.648 202.62 107.357 201.651 104.039 201.887C100.721 202.123 97.5995 203.548 95.2475 205.9C92.8955 208.252 91.4708 211.373 91.235 214.691C90.9992 218.009 91.9681 221.301 93.9639 223.962L142.327 272.325C143.557 273.665 145.052 274.735 146.717 275.468C148.382 276.2 150.181 276.578 152 276.578C153.819 276.578 155.618 276.2 157.283 275.468C158.948 274.735 160.443 273.665 161.673 272.325C163.013 271.095 164.083 269.601 164.815 267.936C165.547 266.27 165.925 264.471 165.925 262.652C165.925 260.834 165.547 259.034 164.815 257.369C164.083 255.704 163.013 254.209 161.673 252.98L113.309 204.616Z" fill="#FFE100"/>
<path d="M37.3091 190.798C34.7578 188.194 31.2812 186.704 27.6364 186.652H13.8182C10.1534 186.652 6.63866 188.108 4.04725 190.7C1.45584 193.291 0 196.806 0 200.471C0 204.135 1.45584 207.65 4.04725 210.241C6.63866 212.833 10.1534 214.289 13.8182 214.289H22.1091L93.9636 286.143C95.1933 287.484 96.6882 288.554 98.3533 289.286C100.018 290.018 101.817 290.396 103.636 290.396C105.455 290.396 107.254 290.018 108.919 289.286C110.585 288.554 112.079 287.484 113.309 286.143C114.649 284.914 115.719 283.419 116.451 281.754C117.183 280.089 117.561 278.289 117.561 276.471C117.561 274.652 117.183 272.853 116.451 271.187C115.719 269.522 114.649 268.027 113.309 266.798L37.3091 190.798Z" fill="#FFE100"/>
</svg>
