<svg width="625" height="182" viewBox="0 0 625 182" fill="none" xmlns="http://www.w3.org/2000/svg">
<path d="M4.42188 0.417969H26.541V25.4668H50.7109V0.417969H72.9277V72H50.7109V43.0449H26.541V72H4.42188V0.417969ZM104.422 36.9414L85.4277 34.9395C86.1439 31.6191 87.1693 29.015 88.5039 27.127C89.8711 25.2064 91.8242 23.5462 94.3633 22.1465C96.1862 21.1374 98.6927 20.3561 101.883 19.8027C105.073 19.2493 108.523 18.9727 112.234 18.9727C118.191 18.9727 122.977 19.3145 126.59 19.998C130.203 20.6491 133.214 22.0326 135.623 24.1484C137.316 25.6133 138.65 27.6966 139.627 30.3984C140.604 33.0677 141.092 35.623 141.092 38.0645V60.9648C141.092 63.4062 141.238 65.3268 141.531 66.7266C141.857 68.0938 142.54 69.8516 143.582 72H124.93C124.181 70.6654 123.693 69.6562 123.465 68.9727C123.237 68.2565 123.009 67.1497 122.781 65.6523C120.177 68.1589 117.589 69.9492 115.018 71.0234C111.502 72.4557 107.417 73.1719 102.762 73.1719C96.5768 73.1719 91.873 71.7396 88.6504 68.875C85.4603 66.0104 83.8652 62.4785 83.8652 58.2793C83.8652 54.3405 85.0208 51.1016 87.332 48.5625C89.6432 46.0234 93.9076 44.1354 100.125 42.8984C107.579 41.401 112.413 40.3594 114.627 39.7734C116.84 39.1549 119.184 38.3574 121.658 37.3809C121.658 34.9395 121.154 33.2305 120.145 32.2539C119.135 31.2773 117.361 30.7891 114.822 30.7891C111.567 30.7891 109.126 31.3099 107.498 32.3516C106.229 33.1654 105.203 34.6953 104.422 36.9414ZM121.658 47.3906C118.924 48.3672 116.076 49.2298 113.113 49.9785C109.077 51.0527 106.521 52.1107 105.447 53.1523C104.34 54.2266 103.787 55.4473 103.787 56.8145C103.787 58.377 104.324 59.6628 105.398 60.6719C106.505 61.6484 108.117 62.1367 110.232 62.1367C112.446 62.1367 114.497 61.5996 116.385 60.5254C118.305 59.4512 119.656 58.1491 120.438 56.6191C121.251 55.0566 121.658 53.0384 121.658 50.5645V47.3906ZM153.006 20.1445H171.512V28.5918C174.279 25.1413 177.078 22.6836 179.91 21.2188C182.742 19.7214 186.193 18.9727 190.262 18.9727C195.763 18.9727 200.06 20.6165 203.152 23.9043C206.277 27.1595 207.84 32.2051 207.84 39.041V72H187.869V43.4844C187.869 40.2292 187.267 37.9342 186.062 36.5996C184.858 35.2324 183.165 34.5488 180.984 34.5488C178.576 34.5488 176.622 35.4603 175.125 37.2832C173.628 39.1061 172.879 42.3776 172.879 47.0977V72H153.006V20.1445ZM274.295 0.417969V72H255.691V64.334C253.087 67.5892 250.711 69.7865 248.562 70.9258C245.698 72.4232 242.508 73.1719 238.992 73.1719C231.928 73.1719 226.525 70.4863 222.781 65.1152C219.07 59.7441 217.215 53.2174 217.215 45.5352C217.215 36.9414 219.266 30.3659 223.367 25.8086C227.501 21.2513 232.742 18.9727 239.09 18.9727C242.182 18.9727 244.982 19.4935 247.488 20.5352C250.027 21.5768 252.273 23.1393 254.227 25.2227V0.417969H274.295ZM254.373 45.9258C254.373 41.8568 253.51 38.8294 251.785 36.8438C250.06 34.8255 247.879 33.8164 245.242 33.8164C242.931 33.8164 240.994 34.7767 239.432 36.6973C237.869 38.6178 237.088 41.8405 237.088 46.3652C237.088 50.597 237.885 53.7057 239.48 55.6914C241.108 57.6445 243.11 58.6211 245.486 58.6211C248.025 58.6211 250.141 57.6283 251.834 55.6426C253.527 53.6569 254.373 50.418 254.373 45.9258ZM284.158 20.1445H332.254V31.7656L306.082 58.4258H333.865V72H282.205V59.1094L307.01 33.7188H284.158V20.1445ZM41.6777 141.736L60.5742 143.885C59.5326 147.824 57.8236 151.242 55.4473 154.139C53.071 157.003 50.0273 159.233 46.3164 160.828C42.638 162.423 37.9505 163.221 32.2539 163.221C26.7526 163.221 22.1628 162.716 18.4844 161.707C14.8385 160.665 11.6973 159.005 9.06055 156.727C6.42383 154.415 4.35677 151.714 2.85938 148.621C1.36198 145.529 0.613281 141.427 0.613281 136.316C0.613281 130.978 1.52474 126.535 3.34766 122.986C4.68229 120.382 6.50521 118.055 8.81641 116.004C11.1276 113.921 13.5039 112.374 15.9453 111.365C19.819 109.77 24.7832 108.973 30.8379 108.973C39.3014 108.973 45.7467 110.486 50.1738 113.514C54.6335 116.541 57.7585 120.968 59.5488 126.795L40.8477 129.285C40.2617 127.072 39.1875 125.411 37.625 124.305C36.0951 123.165 34.028 122.596 31.4238 122.596C28.1361 122.596 25.4668 123.784 23.416 126.16C21.3978 128.504 20.3887 132.068 20.3887 136.854C20.3887 141.118 21.3978 144.357 23.416 146.57C25.4342 148.784 28.0059 149.891 31.1309 149.891C33.735 149.891 35.916 149.223 37.6738 147.889C39.4642 146.554 40.7988 144.503 41.6777 141.736ZM67.2637 136.219C67.2637 128.309 69.9329 121.798 75.2715 116.688C80.61 111.544 87.8203 108.973 96.9023 108.973C107.286 108.973 115.132 111.984 120.438 118.006C124.702 122.856 126.834 128.829 126.834 135.926C126.834 143.901 124.181 150.444 118.875 155.555C113.602 160.633 106.294 163.172 96.9512 163.172C88.6178 163.172 81.8796 161.056 76.7363 156.824C70.4212 151.583 67.2637 144.715 67.2637 136.219ZM87.1855 136.17C87.1855 140.792 88.1133 144.21 89.9688 146.424C91.8568 148.637 94.2168 149.744 97.0488 149.744C99.9134 149.744 102.257 148.654 104.08 146.473C105.936 144.292 106.863 140.792 106.863 135.975C106.863 131.482 105.936 128.146 104.08 125.965C102.225 123.751 99.9297 122.645 97.1953 122.645C94.2982 122.645 91.9056 123.768 90.0176 126.014C88.1296 128.227 87.1855 131.613 87.1855 136.17ZM136.6 110.145H155.203V118.641C156.993 114.962 158.833 112.439 160.721 111.072C162.641 109.673 165.001 108.973 167.801 108.973C170.73 108.973 173.937 109.884 177.42 111.707L171.268 125.867C168.924 124.891 167.068 124.402 165.701 124.402C163.097 124.402 161.079 125.477 159.646 127.625C157.596 130.652 156.57 136.316 156.57 144.617V162H136.6V110.145ZM180.936 181.727V110.145H199.539V117.811C202.111 114.588 204.471 112.407 206.619 111.268C209.516 109.738 212.723 108.973 216.238 108.973C223.172 108.973 228.527 111.626 232.303 116.932C236.111 122.238 238.016 128.797 238.016 136.609C238.016 145.236 235.949 151.827 231.814 156.385C227.68 160.91 222.456 163.172 216.141 163.172C213.081 163.172 210.281 162.651 207.742 161.609C205.236 160.568 202.99 159.021 201.004 156.971V181.727H180.936ZM200.857 136.219C200.857 140.32 201.72 143.364 203.445 145.35C205.171 147.335 207.352 148.328 209.988 148.328C212.299 148.328 214.236 147.384 215.799 145.496C217.361 143.576 218.143 140.337 218.143 135.779C218.143 131.58 217.329 128.504 215.701 126.551C214.074 124.565 212.088 123.572 209.744 123.572C207.205 123.572 205.089 124.565 203.396 126.551C201.704 128.536 200.857 131.759 200.857 136.219ZM245.096 136.219C245.096 128.309 247.765 121.798 253.104 116.688C258.442 111.544 265.652 108.973 274.734 108.973C285.118 108.973 292.964 111.984 298.27 118.006C302.534 122.856 304.666 128.829 304.666 135.926C304.666 143.901 302.013 150.444 296.707 155.555C291.434 160.633 284.126 163.172 274.783 163.172C266.45 163.172 259.712 161.056 254.568 156.824C248.253 151.583 245.096 144.715 245.096 136.219ZM265.018 136.17C265.018 140.792 265.945 144.21 267.801 146.424C269.689 148.637 272.049 149.744 274.881 149.744C277.745 149.744 280.089 148.654 281.912 146.473C283.768 144.292 284.695 140.792 284.695 135.975C284.695 131.482 283.768 128.146 281.912 125.965C280.057 123.751 277.762 122.645 275.027 122.645C272.13 122.645 269.738 123.768 267.85 126.014C265.962 128.227 265.018 131.613 265.018 136.17ZM314.432 110.145H333.035V118.641C334.826 114.962 336.665 112.439 338.553 111.072C340.473 109.673 342.833 108.973 345.633 108.973C348.562 108.973 351.769 109.884 355.252 111.707L349.1 125.867C346.756 124.891 344.9 124.402 343.533 124.402C340.929 124.402 338.911 125.477 337.479 127.625C335.428 130.652 334.402 136.316 334.402 144.617V162H314.432V110.145ZM376.785 126.941L357.791 124.939C358.507 121.619 359.533 119.015 360.867 117.127C362.234 115.206 364.188 113.546 366.727 112.146C368.549 111.137 371.056 110.356 374.246 109.803C377.436 109.249 380.887 108.973 384.598 108.973C390.555 108.973 395.34 109.314 398.953 109.998C402.566 110.649 405.577 112.033 407.986 114.148C409.679 115.613 411.014 117.697 411.99 120.398C412.967 123.068 413.455 125.623 413.455 128.064V150.965C413.455 153.406 413.602 155.327 413.895 156.727C414.22 158.094 414.904 159.852 415.945 162H397.293C396.544 160.665 396.056 159.656 395.828 158.973C395.6 158.257 395.372 157.15 395.145 155.652C392.54 158.159 389.952 159.949 387.381 161.023C383.865 162.456 379.78 163.172 375.125 163.172C368.94 163.172 364.236 161.74 361.014 158.875C357.824 156.01 356.229 152.479 356.229 148.279C356.229 144.34 357.384 141.102 359.695 138.562C362.007 136.023 366.271 134.135 372.488 132.898C379.943 131.401 384.777 130.359 386.99 129.773C389.204 129.155 391.548 128.357 394.021 127.381C394.021 124.939 393.517 123.23 392.508 122.254C391.499 121.277 389.725 120.789 387.186 120.789C383.93 120.789 381.489 121.31 379.861 122.352C378.592 123.165 377.566 124.695 376.785 126.941ZM394.021 137.391C391.287 138.367 388.439 139.23 385.477 139.979C381.44 141.053 378.885 142.111 377.811 143.152C376.704 144.227 376.15 145.447 376.15 146.814C376.15 148.377 376.688 149.663 377.762 150.672C378.868 151.648 380.48 152.137 382.596 152.137C384.809 152.137 386.86 151.6 388.748 150.525C390.669 149.451 392.02 148.149 392.801 146.619C393.615 145.057 394.021 143.038 394.021 140.564V137.391ZM449.344 90.418V110.145H460.281V124.646H449.344V143.055C449.344 145.268 449.555 146.733 449.979 147.449C450.63 148.556 451.769 149.109 453.396 149.109C454.861 149.109 456.912 148.686 459.549 147.84L461.014 161.561C456.098 162.635 451.508 163.172 447.244 163.172C442.296 163.172 438.65 162.537 436.307 161.268C433.963 159.998 432.221 158.077 431.082 155.506C429.975 152.902 429.422 148.702 429.422 142.908V124.646H422.098V110.145H429.422V100.623L449.344 90.418ZM470.535 90.418H490.408V103.943H470.535V90.418ZM470.535 110.145H490.408V162H470.535V110.145ZM500.662 136.219C500.662 128.309 503.331 121.798 508.67 116.688C514.008 111.544 521.219 108.973 530.301 108.973C540.685 108.973 548.53 111.984 553.836 118.006C558.1 122.856 560.232 128.829 560.232 135.926C560.232 143.901 557.579 150.444 552.273 155.555C547 160.633 539.692 163.172 530.35 163.172C522.016 163.172 515.278 161.056 510.135 156.824C503.82 151.583 500.662 144.715 500.662 136.219ZM520.584 136.17C520.584 140.792 521.512 144.21 523.367 146.424C525.255 148.637 527.615 149.744 530.447 149.744C533.312 149.744 535.656 148.654 537.479 146.473C539.334 144.292 540.262 140.792 540.262 135.975C540.262 131.482 539.334 128.146 537.479 125.965C535.623 123.751 533.328 122.645 530.594 122.645C527.697 122.645 525.304 123.768 523.416 126.014C521.528 128.227 520.584 131.613 520.584 136.17ZM569.803 110.145H588.309V118.592C591.076 115.141 593.875 112.684 596.707 111.219C599.539 109.721 602.99 108.973 607.059 108.973C612.56 108.973 616.857 110.617 619.949 113.904C623.074 117.16 624.637 122.205 624.637 129.041V162H604.666V133.484C604.666 130.229 604.064 127.934 602.859 126.6C601.655 125.232 599.962 124.549 597.781 124.549C595.372 124.549 593.419 125.46 591.922 127.283C590.424 129.106 589.676 132.378 589.676 137.098V162H569.803V110.145Z" fill="black"/>
</svg>
