<svg width="500" height="400" viewBox="0 0 500 400" fill="none" xmlns="http://www.w3.org/2000/svg">
  <!-- Background gradient -->
  <defs>
    <linearGradient id="bgGradient" x1="0%" y1="0%" x2="100%" y2="100%">
      <stop offset="0%" style="stop-color:#FFF8DC;stop-opacity:1" />
      <stop offset="30%" style="stop-color:#FFD700;stop-opacity:0.3" />
      <stop offset="70%" style="stop-color:#FFA500;stop-opacity:0.2" />
      <stop offset="100%" style="stop-color:#FFF8DC;stop-opacity:0.8" />
    </linearGradient>
    <linearGradient id="primaryGradient" x1="0%" y1="0%" x2="100%" y2="100%">
      <stop offset="0%" style="stop-color:#FFD700;stop-opacity:0.4" />
      <stop offset="50%" style="stop-color:#FFA500;stop-opacity:0.3" />
      <stop offset="100%" style="stop-color:#FFD700;stop-opacity:0.2" />
    </linearGradient>
    <linearGradient id="accentGradient" x1="0%" y1="0%" x2="100%" y2="100%">
      <stop offset="0%" style="stop-color:#FFA500;stop-opacity:0.3" />
      <stop offset="50%" style="stop-color:#B8860B;stop-opacity:0.2" />
      <stop offset="100%" style="stop-color:#FFA500;stop-opacity:0.1" />
    </linearGradient>
    <radialGradient id="centerGradient" cx="50%" cy="50%" r="50%">
      <stop offset="0%" style="stop-color:#FFD700;stop-opacity:0.6" />
      <stop offset="70%" style="stop-color:#FFA500;stop-opacity:0.3" />
      <stop offset="100%" style="stop-color:#FFF8DC;stop-opacity:0.1" />
    </radialGradient>
    <pattern id="subtleHexPattern" x="0" y="0" width="80" height="70" patternUnits="userSpaceOnUse">
      <polygon points="40,5 60,20 60,50 40,65 20,50 20,20" 
               fill="none" 
               stroke="#FFD700" 
               stroke-width="0.5" 
               opacity="0.1"/>
    </pattern>
    <pattern id="dotPattern" x="0" y="0" width="30" height="30" patternUnits="userSpaceOnUse">
      <circle cx="15" cy="15" r="1" fill="#FFD700" opacity="0.2"/>
    </pattern>
  </defs>
  
  <!-- Background -->
  <rect width="500" height="400" fill="url(#bgGradient)"/>
  <rect width="500" height="400" fill="url(#subtleHexPattern)"/>
  <rect width="500" height="400" fill="url(#dotPattern)"/>
  
  <!-- Main geometric composition with soft blending -->
  <!-- Central large hexagon with soft edges -->
  <polygon points="250,70 285,90 285,130 250,150 215,130 215,90" 
           fill="url(#centerGradient)" 
           stroke="#FFD700" 
           stroke-width="2" 
           opacity="0.6"/>
  
  <!-- Inner hexagon with transparency -->
  <polygon points="250,90 275,105 275,125 250,140 225,125 225,105" 
           fill="url(#primaryGradient)" 
           stroke="#FFA500" 
           stroke-width="1" 
           opacity="0.4"/>
  
  <!-- Central circle with soft glow -->
  <circle cx="250" cy="115" r="25" fill="url(#centerGradient)" opacity="0.5"/>
  <circle cx="250" cy="115" r="15" fill="url(#primaryGradient)" opacity="0.3"/>
  <circle cx="250" cy="115" r="8" fill="#FFD700" opacity="0.4"/>
  
  <!-- Soft geometric shapes around center -->
  <!-- Top triangle with transparency -->
  <polygon points="250,50 270,70 230,70" 
           fill="url(#accentGradient)" 
           stroke="#FFD700" 
           stroke-width="1" 
           opacity="0.3"/>
  
  <!-- Bottom triangle with transparency -->
  <polygon points="250,150 270,130 230,130" 
           fill="url(#accentGradient)" 
           stroke="#FFA500" 
           stroke-width="1" 
           opacity="0.3"/>
  
  <!-- Left square with soft blending -->
  <rect x="190" y="95" width="35" height="35" 
        fill="url(#primaryGradient)" 
        stroke="#FFA500" 
        stroke-width="1" 
        opacity="0.25"/>
  
  <!-- Right square with soft blending -->
  <rect x="275" y="95" width="35" height="35" 
        fill="url(#accentGradient)" 
        stroke="#FFD700" 
        stroke-width="1" 
        opacity="0.25"/>
  
  <!-- Corner elements with very low opacity -->
  <!-- Top left - Soft geometric shape -->
  <polygon points="70,70 100,70 100,90 110,90 110,110 70,110" 
           fill="url(#primaryGradient)" 
           stroke="#FFA500" 
           stroke-width="1" 
           opacity="0.2"/>
  <rect x="80" y="80" width="15" height="15" 
        fill="url(#accentGradient)" 
        opacity="0.15"/>
  
  <!-- Top right - Soft diamond -->
  <polygon points="400,70 420,90 400,110 380,90" 
           fill="url(#accentGradient)" 
           stroke="#FFD700" 
           stroke-width="1" 
           opacity="0.2"/>
  <polygon points="400,80 410,90 400,100 390,90" 
           fill="url(#primaryGradient)" 
           opacity="0.15"/>
  
  <!-- Bottom left - Soft hexagonal cluster -->
  <polygon points="90,280 105,270 120,280 120,300 105,310 90,300" 
           fill="url(#primaryGradient)" 
           stroke="#FFA500" 
           stroke-width="1" 
           opacity="0.2"/>
  <polygon points="95,290 105,285 115,290 115,300 105,305 95,300" 
           fill="url(#accentGradient)" 
           opacity="0.15"/>
  
  <!-- Bottom right - Soft triangular cluster -->
  <polygon points="410,280 430,270 450,280 440,300 420,300" 
           fill="url(#accentGradient)" 
           stroke="#FFD700" 
           stroke-width="1" 
           opacity="0.2"/>
  <polygon points="420,290 430,285 440,290 435,300 425,300" 
           fill="url(#primaryGradient)" 
           opacity="0.15"/>
  
  <!-- Very subtle connection lines -->
  <!-- Horizontal lines with low opacity -->
  <line x1="130" y1="90" x2="190" y2="115" 
        stroke="#FFD700" 
        stroke-width="2" 
        opacity="0.2"/>
  <line x1="275" y1="115" x2="380" y2="90" 
        stroke="#FFA500" 
        stroke-width="2" 
        opacity="0.2"/>
  
  <!-- Vertical lines with low opacity -->
  <line x1="250" y1="50" x2="250" y2="70" 
        stroke="#FFD700" 
        stroke-width="2" 
        opacity="0.3"/>
  <line x1="250" y1="150" x2="250" y2="170" 
        stroke="#FFA500" 
        stroke-width="2" 
        opacity="0.3"/>
  
  <!-- Diagonal connections with very low opacity -->
  <line x1="110" y1="110" x2="215" y2="90" 
        stroke="#FFD700" 
        stroke-width="1" 
        opacity="0.15"/>
  <line x1="285" y1="90" x2="390" y2="110" 
        stroke="#FFA500" 
        stroke-width="1" 
        opacity="0.15"/>
  <line x1="110" y1="300" x2="215" y2="130" 
        stroke="#FFD700" 
        stroke-width="1" 
        opacity="0.1"/>
  <line x1="285" y1="130" x2="390" y2="300" 
        stroke="#FFA500" 
        stroke-width="1" 
        opacity="0.1"/>
  
  <!-- Very subtle geometric elements -->
  <circle cx="160" cy="150" r="6" fill="#FFD700" opacity="0.2"/>
  <circle cx="340" cy="150" r="6" fill="#FFA500" opacity="0.2"/>
  <circle cx="160" cy="250" r="4" fill="#FFA500" opacity="0.15"/>
  <circle cx="340" cy="250" r="4" fill="#FFD700" opacity="0.15"/>
  
  <!-- Small squares with transparency -->
  <rect x="140" y="170" width="10" height="10" 
        fill="url(#accentGradient)" 
        opacity="0.2"/>
  <rect x="350" y="170" width="10" height="10" 
        fill="url(#primaryGradient)" 
        opacity="0.2"/>
  
  <!-- Small triangles with transparency -->
  <polygon points="150,200 155,195 160,200" 
           fill="url(#primaryGradient)" 
           opacity="0.15"/>
  <polygon points="340,200 345,195 350,200" 
           fill="url(#accentGradient)" 
           opacity="0.15"/>
  
  <!-- Soft circuit-like pattern -->
  <rect x="190" y="200" width="120" height="80" 
        fill="url(#primaryGradient)" 
        stroke="#FFD700" 
        stroke-width="1" 
        opacity="0.15" 
        rx="10"/>
  
  <!-- Soft circuit elements -->
  <rect x="200" y="210" width="15" height="15" 
        fill="url(#primaryGradient)" 
        opacity="0.2"/>
  <rect x="220" y="210" width="15" height="15" 
        fill="url(#accentGradient)" 
        opacity="0.2"/>
  <rect x="240" y="210" width="15" height="15" 
        fill="url(#primaryGradient)" 
        opacity="0.2"/>
  <rect x="260" y="210" width="15" height="15" 
        fill="url(#accentGradient)" 
        opacity="0.2"/>
  <rect x="280" y="210" width="15" height="15" 
        fill="url(#primaryGradient)" 
        opacity="0.2"/>
  
  <!-- Very subtle connection lines -->
  <line x1="207" y1="217" x2="220" y2="217" stroke="#FFD700" stroke-width="1" opacity="0.2"/>
  <line x1="227" y1="217" x2="240" y2="217" stroke="#FFA500" stroke-width="1" opacity="0.2"/>
  <line x1="247" y1="217" x2="260" y2="217" stroke="#FFD700" stroke-width="1" opacity="0.2"/>
  <line x1="267" y1="217" x2="280" y2="217" stroke="#FFA500" stroke-width="1" opacity="0.2"/>
  
  <!-- Vertical connections with low opacity -->
  <line x1="207" y1="225" x2="207" y2="240" stroke="#FFD700" stroke-width="1" opacity="0.15"/>
  <line x1="227" y1="225" x2="227" y2="240" stroke="#FFA500" stroke-width="1" opacity="0.15"/>
  <line x1="247" y1="225" x2="247" y2="240" stroke="#FFD700" stroke-width="1" opacity="0.15"/>
  <line x1="267" y1="225" x2="267" y2="240" stroke="#FFA500" stroke-width="1" opacity="0.15"/>
  <line x1="287" y1="225" x2="287" y2="240" stroke="#FFD700" stroke-width="1" opacity="0.15"/>
  
  <!-- Bottom row with transparency -->
  <rect x="200" y="250" width="15" height="15" 
        fill="url(#accentGradient)" 
        opacity="0.15"/>
  <rect x="220" y="250" width="15" height="15" 
        fill="url(#primaryGradient)" 
        opacity="0.15"/>
  <rect x="240" y="250" width="15" height="15" 
        fill="url(#accentGradient)" 
        opacity="0.15"/>
  <rect x="260" y="250" width="15" height="15" 
        fill="url(#primaryGradient)" 
        opacity="0.15"/>
  <rect x="280" y="250" width="15" height="15" 
        fill="url(#accentGradient)" 
        opacity="0.15"/>
  
  <!-- Bottom connections with very low opacity -->
  <line x1="207" y1="257" x2="227" y2="257" stroke="#FFA500" stroke-width="1" opacity="0.1"/>
  <line x1="227" y1="257" x2="247" y2="257" stroke="#FFD700" stroke-width="1" opacity="0.1"/>
  <line x1="247" y1="257" x2="267" y2="257" stroke="#FFA500" stroke-width="1" opacity="0.1"/>
  <line x1="267" y1="257" x2="287" y2="257" stroke="#FFD700" stroke-width="1" opacity="0.1"/>
  
  <!-- Very subtle radiating lines from center -->
  <line x1="250" y1="70" x2="250" y2="50" stroke="#FFD700" stroke-width="1" opacity="0.2"/>
  <line x1="285" y1="90" x2="310" y2="80" stroke="#FFD700" stroke-width="1" opacity="0.2"/>
  <line x1="285" y1="130" x2="310" y2="140" stroke="#FFA500" stroke-width="1" opacity="0.2"/>
  <line x1="250" y1="150" x2="250" y2="170" stroke="#FFA500" stroke-width="1" opacity="0.2"/>
  <line x1="215" y1="130" x2="190" y2="140" stroke="#FFA500" stroke-width="1" opacity="0.2"/>
  <line x1="215" y1="90" x2="190" y2="80" stroke="#FFD700" stroke-width="1" opacity="0.2"/>
  
  <!-- Very subtle floating elements -->
  <polygon points="60,60 65,60 62,65" 
           fill="#FFD700" 
           opacity="0.2"/>
  <polygon points="435,60 440,60 437,65" 
           fill="#FFA500" 
           opacity="0.2"/>
  <polygon points="60,335 65,335 62,340" 
           fill="#FFA500" 
           opacity="0.2"/>
  <polygon points="435,335 440,335 437,340" 
           fill="#FFD700" 
           opacity="0.2"/>
  
  <!-- Very subtle data bars -->
  <rect x="70" y="320" width="8" height="40" fill="url(#primaryGradient)" opacity="0.2"/>
  <rect x="82" y="315" width="8" height="45" fill="url(#accentGradient)" opacity="0.2"/>
  <rect x="94" y="310" width="8" height="50" fill="url(#primaryGradient)" opacity="0.2"/>
  
  <rect x="398" y="310" width="8" height="50" fill="url(#primaryGradient)" opacity="0.2"/>
  <rect x="410" y="315" width="8" height="45" fill="url(#accentGradient)" opacity="0.2"/>
  <rect x="422" y="320" width="8" height="40" fill="url(#primaryGradient)" opacity="0.2"/>
  
  <!-- Central focus with soft glow -->
  <circle cx="250" cy="115" r="3" fill="white" opacity="0.6"/>
  <polygon points="250,115 255,110 260,115 255,120" 
           fill="url(#primaryGradient)" 
           opacity="0.3"/>
  <polygon points="250,115 245,110 240,115 245,120" 
           fill="url(#accentGradient)" 
           opacity="0.3"/>
  <polygon points="250,115 255,120 250,125 245,120" 
           fill="url(#primaryGradient)" 
           opacity="0.3"/>
  <polygon points="250,115 245,120 250,125 255,120" 
           fill="url(#accentGradient)" 
           opacity="0.3"/>
</svg>