<svg version="1.1" id="Layer_1" xmlns="http://www.w3.org/2000/svg" xmlns:xlink="http://www.w3.org/1999/xlink" x="0px" y="0px" viewBox="0 0 500 500" style="width: 178px;" xml:space="preserve" data-imageid="network-1-73" imageName="Network 1" class="illustrations_image">
<style type="text/css">
	.st0_network-1-73{fill:#FFFFFF;}
	.st1_network-1-73{fill:#231F20;}
	.st2_network-1-73{fill:#D1D3D4;}
	.st3_network-1-73{fill:#68E1FD;}
</style>
<g id="Globe_network-1-73">
	<circle class="st0_network-1-73" cx="250" cy="250" r="153.8"/>
	<path class="st1_network-1-73" d="M250,96.2c85,0,153.8,68.9,153.8,153.8S335,403.8,250,403.8S96.2,335,96.2,250l0,0C96.2,165,165,96.2,250,96.2&#10;&#9;&#9; M250,94.9c-85.7,0-155.1,69.4-155.1,155.1S164.3,405.1,250,405.1c85.7,0,155.1-69.4,155.1-155.1c0-41.1-16.3-80.6-45.4-109.7&#10;&#9;&#9;C330.7,111.1,291.2,94.8,250,94.9z"/>
	<path class="st2_network-1-73" d="M365.3,148.2c-1.1,0.4-2.4,0.5-3.5,0.2c0.7-0.6,1.4-1.2,2.1-1.9c-2.8-3.1-5.7-6-8.7-8.9c0,2.1,1.3,4,3.5,5.5&#10;&#9;&#9;c-3.2,0.2-5.8-1.8-8.6-2.6c-3.1-0.9-6.5-1.2-10.3-1.9l5.1,3.7c-1,0.4-1.9,0.7-2.9,0.9c-1-2-2.2-0.4-3.3-0.4&#10;&#9;&#9;c-2.5-0.1-5.3,2.8-7.2-0.2c-0.9,0.1-1.8,0.3-2.6,0.6c-2.3,1-4.8,1.6-6.7,3.1c-2.3,1.9-3,2.1-4.8-0.7l2.4-0.8l0.1-1l-4.8-1&#10;&#9;&#9;c-0.2,1.1-0.3,2.3-0.2,3.4c0.2,0.7,0.6,1.4,1,2c-1.4,0.1-2.8,0.3-4.2,0.6c-1.3,0.5-2.6,1-3.9,1.6l1.2,2.4l-6.4-1&#10;&#9;&#9;c-0.1,0.2-0.1,0.4-0.2,0.6l2.5,1.6c-3.6,1.1-5.9-0.8-6-4.6l-3.1-1.7c1.1-0.1,2.2,0,3.3,0.4c3.5,0.8,6.9,1.6,10.3-0.1&#10;&#9;&#9;c1.8-0.9,1.7-2.1,0-3c-2.1-1.1-4.2-2-6.4-2.7c-3.9-1.1-7.9-1.9-11.9-2.8l0.6-1c-1.8-0.5-3.7-0.9-5.6-1.2c-1-0.1-2.1,0.6-3.3,1.1&#10;&#9;&#9;l1-2.1c-1.9,0.9-3.4,2.2-4.5,2c-2.5-0.6-4.4,1.4-6.9,0.9c-1.5-0.3-3.4,1.9-4.5,2.6c-1.2,0.1-2.3,0.4-3.4,0.8&#10;&#9;&#9;c-1.1,0.6-2.1,1.4-3,2.3l3.9-0.9c-1.8,2.2-3.7,4.8-5.8,7.1c-1.5,1.6-3,3.7-4.9,4.2c-2.6,0.8-5,2.1-7,4c-0.8,0.8-1.2,1.9-1.1,3.1&#10;&#9;&#9;c0.3,1.6,0.7,3.2,1.4,4.8c0.7,1.7,2.7,2.6,4.4,2c1.5-0.8,3.5-2.6,4.4-2.2c1.4,0.6,2,2.9,3,4.4c0.2,0.3,0.4,0.7,0.5,1&#10;&#9;&#9;c0.9,1.8,0.8,6.1,4.2,1.7c2.8,0.6,2.8-1.7,2.9-3.2c0.1-1.6,1-3,2.4-3.7c1.9-1.1,1.9-2.8,0.3-3.9c-2.1-1.5-2.4-2.9-0.5-4.9&#10;&#9;&#9;c1-1,2.4-1.6,3.5-2.6s1.6-2.3,2.7-3.1c1.2-1,2.6-1.8,4.1-2.3c0.9-0.2,2,0.6,3.3,1c-2.5,2-4.4,3.4-6.2,4.9c-1,0.8-2.3,5.9-1.3,6.4&#10;&#9;&#9;c1.7,1.1,3.7,1.7,5.7,1.9c1.8,0.1,3.6-0.9,5.4-1.1c0.9,0,1.8,0.2,2.6,0.6v1.1l-4.8,0.4c-1.3,0.1-2.5,0.2-3.8,0.4&#10;&#9;&#9;c-1.7,0.4-1.9,1.5-0.7,2.6c1.6,1.4,1.1,2.4-0.2,3.6c-3.2-2.6-3.9-2.4-4.7,1.7c-0.1,0.9-0.1,1.9,0,2.8c-1.3,0.6-2.9,1.9-3.7,1.5&#10;&#9;&#9;c-3.4-1.6-5.6,1.4-8.6,1.6c-0.9-2.3-2.6-0.9-4.1-0.9c-1-0.1-2-0.6-2.8-1.3c-0.4-0.4-0.7-1.6-0.4-1.9c1.4-1.5,1.5-3.1,0.9-5.2&#10;&#9;&#9;c-4.1,2.2-4,2.2-3.1,6.4c0.1,0.8,0.2,1.7,0.2,2.6l-6,2.4c-1.9,1.9-3.3,3.3-4.7,4.6c-0.5,0.5-1.2,0.8-1.5,1.4&#10;&#9;&#9;c-1.3,2.4-3.5,3.4-6,2.3c0.1,0.8,0.2,1.6,0.3,2.5l-5.3-0.2c1.5,2.3,3.4,3.7,5,5.5c2.1,2.4,0.4,5,0.1,7.5c-4.5,0.3-9-1.7-13.3,0.9&#10;&#9;&#9;c2.5,5-1.7,10.2,1.3,15.1l2.9-0.4c0.7,1,1.4,1.8,1.8,2.3c4.5-1.1,8.8-1.7,10.2-5.6c0-1.5-0.3-2.6,0.1-3.2c1-1.4,2.4-2.6,3.6-3.9&#10;&#9;&#9;c0.8-0.9,2.1-1.9,2-2.9c-0.2-2.9,1.6-2.7,3.2-2.1c1.4,0.7,3.1,0.4,4.1-0.7c1-0.8,2-1.5,3.1-2.2c0.8,1,1.5,2,2.3,2.9&#10;&#9;&#9;c1.4,1.6,2.7,3.5,4.5,4.8c2.9,2.1,6.4,3.7,5.1,8.4c0.8-1.1,1.5-2.1,2-2.8c-0.3-1.2-0.6-2-1-3.4l3.3,1.4c-0.1-0.5-0.1-0.9-0.2-1&#10;&#9;&#9;c-2-1.3-3.1-3.6-5.7-4.2c-0.7-0.1-1.3-1-1.8-1.6c-0.8-1-1.2-2.2-2-3.2c-2-2.4-1.6-3.6,1.1-4.4c0.2,0.6,0.5,1.2,0.9,1.7&#10;&#9;&#9;c0.3,0.3,1.2,0.3,1.3,0.6c0.7,2.7,3,3.5,5.1,4.7c1.3,0.8,3,2.3,3,3.5c0,5.4,3.9,8.7,5.8,13c0.8-1.2,1.6-2.5,2.2-3.8&#10;&#9;&#9;c0.2-0.9,0.1-1.8-0.3-2.6c-0.6-1.2-1.4-2.4-2.2-3.5c1.2,0.1,2.4,0.5,2.8,0.1c2.1-1.9,2-2,3.9-0.9c-0.1,2-0.3,3.6-0.4,5.1&#10;&#9;&#9;c0.8,1.2,1.4,3.1,2.6,3.6c1.4,0.7,2.7,3.2,5.2,1c0.8-0.7,3.4,0.7,5.2,1.1c0.1,0,0.2,0,0.3-0.1l4.5-2.1c-0.9,4.2-1.7,7.5-2.4,10.8&#10;&#9;&#9;c-0.5,2.1-1.3,3.7-4,3.8c-1,0-2,1.1-2.6,1.5l4.2,4.4l-2,1.6l0.3,0.8l4-1.2c0.5,1,1.3,2.2,2,3.5c1.1,2.2,2.1,4.4,3.1,6.6&#10;&#9;&#9;c0.8,1.8,1.5,3.6,2.2,5.4c0.5,1.3,0.7,2.8,1.3,4c0.8,1.4,1.7,2.8,2.7,4.1c2.7,4,2.7,8.7,3.5,13.2c0.3,1.6,1,2.2,2.4,1.5&#10;&#9;&#9;c2.6-1.2,5.2-2.6,7.7-4.1c2.6-1.7,4.8-4,7.5-5.6c2.5-1.5,4.8-2.9,6.5-5.2c0.5-0.6,0.8-1.4,1.2-2.1c0.4-0.7,0.8-1.4,1.3-2.1&#10;&#9;&#9;c3.1-3.4,2.5-6.4-1.7-8.4c-0.8-0.5-1.5-1.3-1.8-2.2c-0.3-1.2-0.4-2.4-0.4-3.6c-1.2,1.2-2.2,2.6-3.1,4c-1.2,2.4-3.1,0.9-4.6,1.2&#10;&#9;&#9;c-0.2-1-0.3-2-0.5-2.9c-0.1-0.6-0.3-1.3-0.6-2.7c-0.6,1.4-0.9,2.1-1.1,2.6c-1.5-3.3-3.1-6.7-4.7-10.1c2.5-2.8,3.1-2.8,4.8,0.7&#10;&#9;&#9;c0.2,0.5,0.5,1,0.7,1.5c1.2,3.7,5.2,5.6,8.9,4.4c0.3-0.1,0.7-0.3,1-0.4c1.3,3.3,1.6,3.7,5.3,3.9s7.7,0.1,11.1,0.1&#10;&#9;&#9;c2.2,2.5,4.2,4.8,6.3,7.1l-1.8,0.7l4.1,3.6l2.1-2.6c1,5.2,1.8,11.2,3.3,17.1s2.9,11.6,5.6,17.4c3.6-4.2,5.4-9.6,5-15.1&#10;&#9;&#9;c-0.1-1.3-0.2-3,0.5-4c1.3-2,3.5-3.4,4.8-5.3c2-3.1,5.9-4.6,6.6-8.7c0.1-0.5,1.2-1,1.9-1.2c2-0.5,4-0.9,6.2-1.3&#10;&#9;&#9;c0.4,1.1,0.5,3,1.5,4.4c1.3,1.6,2.3,3.4,3.1,5.3c0.7-5.8,1-11.6,1-17.5C404,212.5,390.2,176.3,365.3,148.2z"/>
	<path class="st2_network-1-73" d="M152.1,368.7c0.5-1,0.8-2,0.9-3.1c0.2-2.6,1-4.4,3.2-5.4c2.5-1.1,5.2-1.9,7.8-2.9c0.6-0.2,1.2-0.5,1.6-1&#10;&#9;&#9;c1.2-2.2,2.6-4.4,3.2-6.8c0.8-3.3,0.8-6.7,1.1-10.1c0-0.4,0.1-0.7,0.2-1.1c1.3-1.7,2.9-3.3,4-5.1c1.3-2,3.2-4.2,3.3-6.5&#10;&#9;&#9;c0.3-2.6-1.6-5-4.2-5.3c-0.1,0-0.2,0-0.3,0c-0.4,0-0.8-0.5-1.1-0.8c-3-4.1-7.3-3.2-11.6-3.2c0.4-1.7-0.5-2.3-2.3-2.7&#10;&#9;&#9;c-4.2-1-7.6-2.9-8.8-7.7c-1.3-5-3.8-6.5-9-6.8c-1.5-0.1-3-1.2-4.3-2.1c-1-0.8-1.9-1.7-2.7-2.8c-0.4-0.5-0.9-1-1.4-1.5&#10;&#9;&#9;c-1.4-1-2.5-3.2-4.5-2.7c-2.1,0.5-4.1,1-6.2,0.1c-1.9-0.8-3.7-1.8-5.9-2.8c-0.6,1.5-1.3,3.5-2,5.6c-1.4-2.2,0-4.4,0.3-6.6&#10;&#9;&#9;c-4.1,2.5-8.8,4-9.8,9.5l-0.3-0.1C112.5,325,129.4,349.9,152.1,368.7z"/>
	<path class="st2_network-1-73" d="M121.3,200c5.2,1.2,9-1.4,13.1-3.4c0.8-0.4,1.3-1.1,1.4-2c-0.1-1-0.7-1.9-1.5-2.5c-1.2-0.5-2.4-0.8-3.6-0.9&#10;&#9;&#9;l1.6-1c-2-1.2-4.2-2.1-6-3.7c-0.9-0.8-0.6-2.8-1.3-4c-1.3-2-2.7-4-4.1-5.9c-1.4,1.9-1.8,5.4-5.1,4.6c-1-0.2-1.9-0.8-2.5-1.7&#10;&#9;&#9;c-9.5,18.3-15.2,38.4-16.7,59c0.5-0.6,1.2-1.1,1.8-1.5c4.2-2.4,4.5-3.2,3.4-8c-0.2-1.6-0.2-3.2-0.1-4.8c0.4,1.6,0.7,2.8,1.1,4&#10;&#9;&#9;c1-1.8,2.4-3.2,2.6-4.8c0.3-2.8,1.6-3.4,4-3.4c0.9-0.1,1.8-0.3,2.7-0.6l-0.8-0.4c0.2-1.4-0.2-3.5,0.5-4c2.9-1.8,6-3.3,9.1-4.7&#10;&#9;&#9;c-0.9,1.9-1.4,3.1-2,4.3l0.7,0.2l9.6-5.1c-0.1-0.2-0.3-0.5-0.4-0.8c-0.4,0.2-0.7,0.4-1.2,0.7c0.2-0.8,0.4-1.5,0.6-2.3&#10;&#9;&#9;c-0.4,0-0.8,0.3-1,0.6c-1.8,2.6-2.7,2.8-5.3,0.9c-1.9-1.4-2.7-3-0.6-5c0.2-0.2-0.3-1.6-0.6-1.6c-1.1-0.1-2.2,0-3.2,0.2&#10;&#9;&#9;c-1.4,0.5-2.8,1.1-4.1,1.7C115.7,202.2,118,199.2,121.3,200z"/>
	<path class="st2_network-1-73" d="M254.3,304.5c0.7,1.2,1,2.6,0.7,4c-1.2,4.1-1.2,7.5,2.1,10.9c2.8,3,4.3,7.1,4,11.3c0,0.6,0.1,1.1,0.4,1.6&#10;&#9;&#9;c1.4,1.8,0.5,3.1-0.4,5c-2,4.1-3.9,8.3-1.1,13.1c1.7,2.8,3.5,5.6,3.6,9.4c0.1,3.4,0.9,6.9,3.5,9.7c1.5,1.6,3,4.2,2.8,6.2&#10;&#9;&#9;c-0.3,2.7,0.9,3.9,2.6,5c0.8-0.4,1.7-0.7,2.6-0.9c2.5-0.3,5.2-0.1,7.6-0.8c6.3-1.8,9.3-7.2,12.5-12.2c0.6-0.9,0.2-2.5,0.3-4.3&#10;&#9;&#9;c0.4-0.2,1.2-0.7,2.1-1.2c2.5-1.2,3.3-2.9,2.5-5.6c-0.3-1-0.7-1.9-1-2.9c-0.1-0.5-0.2-1.4,0.1-1.7c2.1-1.9,4.4-3.6,6.4-5.6&#10;&#9;&#9;c1.3-1.3,3.1-2.7,3.4-4.3c0.5-2.3,0-4.9-0.4-7.4c-0.3-1.6-1.4-3.1-1.7-4.8c-0.3-1.8,0.9-3.9-1-5.5c-0.2-0.2-0.1-1.2,0.1-1.6&#10;&#9;&#9;c3.1-4.3,5.6-9.4,9.6-12.6c5.3-4.3,7.9-9.9,10.9-15.6c0.8-1.5,0.7-3.5,1-5.3c-4,1-7.6,2-11.2,2.8c-0.8,0-1.5-0.4-2-1&#10;&#9;&#9;c-0.6-1-0.5-2.5-1.2-3.4c-1.3-1.6-3.1-2.9-4.5-4.4c-0.9-0.8-1.5-1.7-2-2.8c-1.2-3.7-3.9-6.6-4.4-10.7c-0.3-2.6-2.6-4.9-3.8-7.4&#10;&#9;&#9;c-1.5-3.1-2.8-6.4-3.9-9.7c-0.8-2.4-2.2-2.2-4.1-1.7c-1.4,0.5-2.9,0.6-4.4,0.3c-2.9-0.8-5.7-1.8-8.5-2.9c-2.5-0.9-4.5,0.1-4.7,2.7&#10;&#9;&#9;c-0.2,1.8-1,2.8-2.7,1.5s-5.2-0.6-5.8-3.9c0-0.1-0.7,0-1-0.2c-2.6-1.1-6.2,0.3-7.7-2.5c0.7-2.1,1.3-3.9,2-5.8&#10;&#9;&#9;c-1.2-0.3-2.4-0.4-3.7-0.5c-3.2,0.1-6.4,0.3-9.5,0.6c-2.3,0.3-4.5,0.9-6.6,1.7c-3.4,1.4-6.6,2.6-9.6,0.2c-1.5,1.6-2.7,3.5-4.3,4.4&#10;&#9;&#9;c-1.9,1-3.2,3-3.1,5.1c0,3.4-1.8,4.6-4.5,5.4c-0.7,0.2-1.3,0.6-1.7,1.2c-1.6,2.6-3.2,5.2-4.5,7.9c-1,1.9-2.7,3.5-0.9,6.3&#10;&#9;&#9;c1,1.6,0.8,4.5,0.2,6.5c-0.8,2.8-1,5.6-0.7,8.5c0.2,0.7,0.6,1.3,1.1,1.8c0.4,0.5,1,0.8,1.4,1.3c1.6,2.3,2.9,4.9,4.8,7&#10;&#9;&#9;s4.3,3.5,6.4,5.4c1.4,1.2,2.6,1.1,4.3,0.6c2.2-0.6,4.6-0.5,7-0.7c0.9,0,1.8-0.2,2.7-0.4c1.8-0.7,3.6-1.4,5.4-1.9&#10;&#9;&#9;c1.9-0.4,4.4-1.6,5.2,1.2c0.8,2.5,2.2,2.4,4.2,2.2C252.5,303.4,253.5,303.8,254.3,304.5z"/>
	<path class="st2_network-1-73" d="M137.9,144.7c0.5-0.2,1.1-0.4,1.6-0.7l4.5,3.1l-5.8-0.8c0,0.3-0.1,0.6-0.1,0.9l5.5,2.1v2.8l-6.6,3.3l3,2.4&#10;&#9;&#9;c-0.2,0.8-0.2,1.6,0,2.4c2.1,4.3,4.2,8.6,6.5,12.8c0.6,1.1,1.5,2,2.6,2.6c1.6,0.8,3.2,1.5,4.8,2.2c1.2,0.5,2.4,1.2,2.8-1&#10;&#9;&#9;s0.9-4.1,1.4-6.1c0.1-0.4,0.2-0.9,0.5-1c2.3-1.2,2.7-3.1,2.7-5.5c0-0.8,1.3-2.3,1.9-2.2c4.5,0.4,7.3-1.9,9.7-5.2&#10;&#9;&#9;c0.7-0.9,1.8-2.1,2.8-2.1c5.9-0.4,10.8-3,16-6l-7-0.7l1.9-2.3l5.6,2.3c0.4-2.9-0.6-4.3-2.8-5.1c-2.4-0.9-2.6-2.2-1.4-3.9h6.4&#10;&#9;&#9;c-0.6-0.7-1.2-1.4-1.9-2.1l4.1-0.6l-1.8-1.9c3.2-2.2-1-3.3-0.8-4.9l4-0.2c-0.7-1.1-1.1-2.4-2-2.8c-1.1-0.5-2.6-0.2-4-0.3&#10;&#9;&#9;c3.7-5.6,10-7.3,15.8-10.1c-3.1-1.7-6.9-1.9-10.2-0.6c-3.1,1-6.5,1.3-9.1,1.8l1.4-2.3c-1.2,0.1-2.4,0.3-3.6,0.4c-0.7,0.1-1.3,0-2,0&#10;&#9;&#9;c0-0.4-0.1-0.8-0.1-1.1l7.2-1.2c-2.5-0.7-4.8-1.6-7.2-2.1C166.9,119,151.1,130.5,137.9,144.7z"/>
	<path class="st2_network-1-73" d="M118.3,170.4c-0.3,0.5-0.6,1-0.9,1.5c0.6,0.2,1.2,0.4,1.8,0.6C118.9,171.7,118.6,171,118.3,170.4z"/>
	<path class="st2_network-1-73" d="M126.7,158.1L126.7,158.1l-1.4,1.8L126.7,158.1z"/>
	<path class="st2_network-1-73" d="M121,169.6c0.2-1.1,0.2-2.1-0.2-3.2c-0.6,1-1.3,2-1.9,3L121,169.6z"/>
	<path class="st2_network-1-73" d="M314.5,354c-1,2.1-0.7,6.1,1,7.6c1.3,1.1,3.3,1,4.4-0.3c0.3-0.3,0.5-0.6,0.6-1c1.6-5.3,3-10.6,4.5-16&#10;&#9;&#9;c0.1-0.4,0-0.9,0.3-1.2c1.3-2,1-4.7-0.9-6.3c-3.1,2.3-3.4,7.4-9,7.2c0,1.8,0.1,3.5,0,5.1C315.4,350.7,315.1,352.4,314.5,354z"/>
	<path class="st2_network-1-73" d="M240.3,184.4c0.2-0.7,0.9-1.7,0.7-2c-0.4-0.4-0.9-0.6-1.5-0.7l-6-8.3c1.6-2.9,1.6-4-0.6-5.4&#10;&#9;&#9;c-1.3-0.9-4.4,0.4-5.8,2.3c-0.6,0.9,0.3,2.6,2.7,4.9c-0.1,0.5-0.2,1.1-0.3,1.7c0.5,0.1,0.8,0,1,0.1c0.9,0.6,2.1,1.2,2.4,2.1&#10;&#9;&#9;s-0.6,1.9-2,1.3c-0.3,0.2-0.6,0.6-0.7,1c-0.1,1,0,2,0,3.3l2.3,0.7l-4.1,3.1l11-1.8C239.9,185.6,240.1,185,240.3,184.4z"/>
	<path class="st2_network-1-73" d="M334.3,128.9c-1.9,2.3-4.3,4.1-6.7,6.3c2.9,2.9,6.7,3.2,11.3,3.1c-1.3-0.9-2.3-1.3-2.8-2.1s-0.9-2.3-0.5-2.8&#10;&#9;&#9;c2-2.5,4.6-4.4,7.5-5.8c-1-0.7-2-1.5-3-2.2C337.9,125.9,335.9,127.1,334.3,128.9z"/>
	<path class="st2_network-1-73" d="M195.4,169.6c1.1,0.3,2.2,0.3,3.3,0c1.7-0.4,3.3-1.2,4.8-2.2c1.1-0.9,3.5-1.6,2.3-3.6c-0.9-1.5-2.6-2.6-4-3.9&#10;&#9;&#9;c-0.1,0.3-0.1,0.6-0.2,0.9l-8.4,2l-2-2.7l0.3,0.9l-3.7,2.1l0.4,0.5h3.9l-3.6,1.9l4,1.1l-2,1.5C192.1,168.6,193.7,169.3,195.4,169.6&#10;&#9;&#9;z"/>
	<path class="st2_network-1-73" d="M267.5,123.2c1.8-1.4,3.3-2.7,4.9-3.8c0.6-0.3,1.3-0.3,1.9,0c0.5,0.3,0.6,1.2,0.9,1.9h5.4c0-0.3,0.1-0.7,0.1-1&#10;&#9;&#9;l-15.1-6l0.9,2.1l-9-0.8l-0.2,0.9c1.3,0.9,2.5,2.2,3.9,2.6s2.9-0.3,4.4-0.6l0.1,0.7l-3.4,1.2l0.1,0.5l2.7,0.2l-1.8,0.9L267.5,123.2&#10;&#9;&#9;z"/>
	<path class="st2_network-1-73" d="M227.5,179.3c1.3-0.8,1.5-1.9,0.2-2.5s-2.8-1.8-4.2-0.1c-0.8,0.9-1.7,1.7-2.8,2.7v4.4l-0.9,0.4&#10;&#9;&#9;c0.5,0.4,1.1,1.2,1.4,1.1c2-0.5,4-1.2,5.8-2.1c0.5-0.3,0.1-2,0.2-3C227.2,179.9,227.3,179.5,227.5,179.3z"/>
	<path class="st2_network-1-73" d="M98.2,267.1c-0.4-0.2-0.8-0.3-1.2-0.4c0.1,0.6,0.2,1.3,0.2,1.9c1.1,0.4,2.2,0.9,3.2,1.4&#10;&#9;&#9;c1.1,0.5,1.8,1.9,2.9,3.2l5.1-0.6C104.8,270.7,101.6,268.8,98.2,267.1z"/>
	<path class="st2_network-1-73" d="M118.3,276.5c0.2-2.5-4.2-4-8.2-3l2.1,2.4l-4.2-0.4C111.3,277.9,114.8,276.2,118.3,276.5z"/>
	<path class="st2_network-1-73" d="M285.1,114.4h-14.2c2,0.9,3.9,1.8,5.9,2c2.8,0.1,5.5-0.1,8.3-0.4V114.4z"/>
	<path class="st2_network-1-73" d="M379.7,300.2c0.8-0.3,1.9-1.9,1.7-2.4c-0.8-1.7-1.7-3.4-2.8-5l-0.8,0.4c0,1.7,0,3.4,0,5.1&#10;&#9;&#9;C377.6,299.7,378.1,300.8,379.7,300.2z"/>
	<path class="st2_network-1-73" d="M254.7,211.1l-1.8,0.8v4.8c3.2-0.2,1.7-2.7,2.4-4.1C255.4,212.2,254.9,211.6,254.7,211.1z"/>
	<path class="st2_network-1-73" d="M264.9,218.8h-5c0,0.2-0.1,0.4-0.2,0.6l4.6,2.8C264.5,220.9,264.7,219.8,264.9,218.8z"/>
</g>
<g id="Connections_network-1-73">
	<path class="st1_network-1-73" d="M145.2,326.7c-0.1,0-0.2,0-0.2,0l-2-0.7c-0.4-0.1-0.6-0.5-0.5-0.9c0.1-0.4,0.5-0.6,0.9-0.5c0,0,0.1,0,0.1,0&#10;&#9;&#9;l2,0.7c0.4,0.1,0.6,0.5,0.4,0.9c0,0,0,0,0,0C145.7,326.5,145.5,326.7,145.2,326.7z"/>
	<path class="st1_network-1-73" d="M281.7,376.2c-0.1,0-0.2,0-0.2,0l-4-1.5c-0.4-0.1-0.6-0.5-0.5-0.9c0.1-0.4,0.5-0.6,0.9-0.5c0,0,0.1,0,0.1,0&#10;&#9;&#9;l4,1.5c0.4,0.1,0.5,0.5,0.4,0.9C282.2,376,281.9,376.2,281.7,376.2z M273.7,373.3c-0.1,0-0.2,0-0.2,0l-4-1.5&#10;&#9;&#9;c-0.4-0.1-0.6-0.5-0.4-0.9c0.1-0.4,0.5-0.6,0.9-0.4l4,1.5c0.4,0.1,0.6,0.5,0.4,0.9C274.2,373.1,274,373.3,273.7,373.3L273.7,373.3z&#10;&#9;&#9; M265.7,370.4c-0.1,0-0.2,0-0.2,0l-4-1.5c-0.4-0.1-0.6-0.5-0.4-0.9c0.1-0.4,0.5-0.6,0.9-0.4l4,1.5c0.4,0.1,0.5,0.5,0.4,0.9&#10;&#9;&#9;C266.2,370.2,265.9,370.4,265.7,370.4L265.7,370.4z M257.7,367.5c-0.1,0-0.2,0-0.2,0l-4-1.5c-0.4-0.1-0.6-0.5-0.5-0.9&#10;&#9;&#9;c0.1-0.4,0.5-0.6,0.9-0.5c0,0,0.1,0,0.1,0l4,1.5c0.4,0.1,0.6,0.5,0.4,0.9C258.2,367.3,258,367.5,257.7,367.5L257.7,367.5z&#10;&#9;&#9; M249.7,364.5c-0.1,0-0.2,0-0.2,0l-4-1.5c-0.4-0.1-0.6-0.5-0.4-0.9c0.1-0.4,0.5-0.6,0.9-0.4l4,1.5c0.4,0.1,0.5,0.5,0.4,0.9&#10;&#9;&#9;c-0.1,0.3-0.4,0.5-0.8,0.5H249.7z M241.7,361.6c-0.1,0-0.2,0-0.2,0l-4-1.5c-0.4-0.2-0.5-0.6-0.3-0.9c0.1-0.3,0.5-0.5,0.8-0.4l4,1.5&#10;&#9;&#9;c0.4,0.1,0.5,0.5,0.4,0.9c-0.1,0.3-0.5,0.5-0.8,0.4L241.7,361.6z M233.7,358.7c-0.1,0-0.2,0-0.2,0l-4-1.5c-0.4-0.1-0.6-0.5-0.4-0.9&#10;&#9;&#9;c0,0,0,0,0,0c0.1-0.4,0.5-0.6,0.9-0.4c0,0,0,0,0,0l4,1.5c0.4,0.1,0.6,0.5,0.4,0.9C234.2,358.6,234,358.8,233.7,358.7L233.7,358.7z&#10;&#9;&#9; M225.7,355.8c-0.1,0-0.2,0-0.2,0l-4-1.5c-0.4-0.1-0.6-0.5-0.4-0.9c0,0,0,0,0,0c0.1-0.4,0.5-0.6,0.9-0.4c0,0,0,0,0,0l4,1.5&#10;&#9;&#9;c0.4,0.1,0.5,0.5,0.4,0.9c-0.1,0.3-0.5,0.5-0.9,0.4L225.7,355.8z M217.7,352.9c-0.1,0-0.2,0-0.2,0l-4-1.5c-0.4-0.1-0.6-0.5-0.4-0.9&#10;&#9;&#9;c0,0,0,0,0,0c0.1-0.4,0.5-0.5,0.9-0.4l4,1.5c0.4,0.1,0.6,0.5,0.4,0.9C218.2,352.7,218,352.9,217.7,352.9L217.7,352.9z M209.7,350&#10;&#9;&#9;c-0.1,0-0.2,0-0.2,0l-4-1.5c-0.4-0.1-0.6-0.5-0.4-0.9c0.1-0.4,0.5-0.6,0.9-0.4l4,1.5c0.4,0.1,0.6,0.5,0.4,0.9&#10;&#9;&#9;C210.2,349.8,210,350,209.7,350L209.7,350z M201.7,347.1c-0.1,0-0.2,0-0.2,0l-4-1.5c-0.4-0.1-0.6-0.5-0.5-0.9&#10;&#9;&#9;c0.1-0.4,0.5-0.6,0.9-0.5c0,0,0.1,0,0.1,0l4,1.5c0.4,0.1,0.5,0.5,0.4,0.9c-0.1,0.4-0.5,0.6-0.8,0.5c0,0-0.1,0-0.1,0L201.7,347.1z&#10;&#9;&#9; M193.7,344.1c-0.1,0-0.2,0-0.2,0l-4-1.5c-0.4-0.1-0.6-0.5-0.4-0.9c0.1-0.4,0.5-0.6,0.9-0.4l4,1.5c0.4,0.1,0.6,0.5,0.4,0.9&#10;&#9;&#9;C194.2,344,194,344.2,193.7,344.1L193.7,344.1z M185.7,341.2c-0.1,0-0.2,0-0.2,0l-4-1.5c-0.4-0.1-0.6-0.5-0.4-0.9&#10;&#9;&#9;c0.1-0.4,0.5-0.6,0.9-0.4l4,1.5c0.4,0.1,0.5,0.5,0.4,0.9c-0.1,0.4-0.5,0.6-0.9,0.5c0,0-0.1,0-0.1,0L185.7,341.2z M177.7,338.3&#10;&#9;&#9;c-0.1,0-0.2,0-0.2,0l-4-1.5c-0.4-0.1-0.6-0.5-0.4-0.9c0,0,0,0,0,0c0.1-0.4,0.5-0.5,0.9-0.4l4,1.5c0.4,0.1,0.5,0.5,0.4,0.9&#10;&#9;&#9;c-0.1,0.4-0.5,0.6-0.9,0.5c0,0-0.1,0-0.1,0L177.7,338.3z M169.7,335.4c-0.1,0-0.2,0-0.2,0l-4-1.5c-0.4-0.1-0.6-0.5-0.4-0.9&#10;&#9;&#9;c0.1-0.4,0.5-0.6,0.9-0.4l4,1.5c0.4,0.1,0.6,0.5,0.4,0.9C170.2,335.2,170,335.4,169.7,335.4L169.7,335.4z M161.7,332.5&#10;&#9;&#9;c-0.1,0-0.2,0-0.2,0L157,331c-0.4-0.1-0.6-0.5-0.5-0.9c0.1-0.4,0.5-0.6,0.9-0.5c0,0,0.1,0,0.1,0l4,1.5c0.4,0.1,0.5,0.5,0.4,0.9&#10;&#9;&#9;c-0.1,0.3-0.4,0.5-0.7,0.4L161.7,332.5z M153.7,329.6c-0.1,0-0.2,0-0.2,0l-4-1.5c-0.4-0.1-0.6-0.5-0.4-0.9c0.1-0.4,0.5-0.6,0.9-0.4&#10;&#9;&#9;l4,1.5c0.4,0.1,0.6,0.5,0.4,0.9C154.2,329.4,154,329.6,153.7,329.6L153.7,329.6z"/>
	<path class="st1_network-1-73" d="M287.6,378.4c-0.1,0-0.2,0-0.2,0l-2-0.7c-0.4-0.1-0.6-0.5-0.4-0.9c0.1-0.4,0.5-0.6,0.9-0.4l1,0.4v-1.1&#10;&#9;&#9;c0-0.4,0.3-0.7,0.7-0.7c0,0,0,0,0,0c0.4,0,0.7,0.3,0.7,0.7c0,0,0,0,0,0l0,2.1c0,0.2-0.1,0.4-0.3,0.6&#10;&#9;&#9;C287.9,378.3,287.8,378.4,287.6,378.4z"/>
	<path class="st1_network-1-73" d="M287.5,372.1c-0.4,0-0.7-0.3-0.7-0.7l-0.1-4.2c0-0.4,0.3-0.7,0.7-0.7c0.4,0,0.7,0.3,0.7,0.6c0,0,0,0,0,0.1&#10;&#9;&#9;l0.1,4.2C288.2,371.8,287.9,372.1,287.5,372.1L287.5,372.1z M287.3,363.8c-0.4,0-0.7-0.3-0.7-0.7l-0.1-4.2c0-0.4,0.3-0.7,0.7-0.7&#10;&#9;&#9;c0,0,0,0,0,0l0,0c0.4,0,0.7,0.3,0.7,0.7l0.1,4.1C288,363.4,287.7,363.7,287.3,363.8L287.3,363.8z M287.1,355.4&#10;&#9;&#9;c-0.4,0-0.7-0.3-0.7-0.7l-0.1-4.2c0-0.4,0.3-0.7,0.7-0.7c0,0,0,0,0,0c0.4,0,0.7,0.3,0.7,0.7l0.1,4.2&#10;&#9;&#9;C287.8,355.1,287.5,355.4,287.1,355.4C287.2,355.4,287.2,355.4,287.1,355.4L287.1,355.4z M286.9,347.1c-0.4,0-0.7-0.3-0.7-0.7&#10;&#9;&#9;l-0.1-4.2c0-0.4,0.3-0.7,0.7-0.7c0,0,0,0,0,0l0,0c0.4,0,0.7,0.3,0.7,0.7l0.1,4.2C287.6,346.7,287.3,347,286.9,347.1&#10;&#9;&#9;C287,347.1,287,347.1,286.9,347.1L286.9,347.1z M286.8,338.7c-0.4,0-0.7-0.3-0.7-0.7l-0.1-4.2c0-0.4,0.3-0.7,0.7-0.7c0,0,0,0,0,0&#10;&#9;&#9;c0.4,0,0.7,0.3,0.7,0.7c0,0,0,0,0,0l0.1,4.2C287.5,338.4,287.2,338.7,286.8,338.7C286.8,338.7,286.8,338.7,286.8,338.7L286.8,338.7&#10;&#9;&#9;z M286.6,330.4c-0.4,0-0.7-0.3-0.7-0.7l-0.1-4.2c0-0.4,0.3-0.7,0.7-0.7c0.4,0,0.7,0.3,0.7,0.7c0,0,0,0,0,0l0.1,4.2&#10;&#9;&#9;C287.3,330,287,330.3,286.6,330.4C286.6,330.4,286.6,330.4,286.6,330.4L286.6,330.4z M286.4,322c-0.4,0-0.7-0.3-0.7-0.7l-0.1-4.2&#10;&#9;&#9;c0-0.4,0.3-0.7,0.7-0.7c0,0,0,0,0,0c0.4,0,0.7,0.3,0.7,0.7l0.1,4.2C287.1,321.7,286.8,322,286.4,322C286.4,322,286.4,322,286.4,322&#10;&#9;&#9;L286.4,322z M286.2,313.7c-0.4,0-0.7-0.3-0.7-0.7l-0.1-4.2c0-0.4,0.3-0.7,0.7-0.7c0.4,0,0.7,0.3,0.7,0.7l0.1,4.2&#10;&#9;&#9;C286.9,313.3,286.6,313.6,286.2,313.7L286.2,313.7z M286,305.3c-0.4,0-0.7-0.3-0.7-0.7l-0.1-4.2c0-0.4,0.3-0.7,0.7-0.7&#10;&#9;&#9;c0.4,0,0.7,0.3,0.7,0.7l0.1,4.2C286.7,305,286.4,305.3,286,305.3C286,305.3,286,305.3,286,305.3L286,305.3z M285.8,297&#10;&#9;&#9;c-0.4,0-0.7-0.3-0.7-0.7c0,0,0,0,0,0l-0.1-4.2c0-0.4,0.3-0.7,0.7-0.7c0,0,0,0,0,0c0.4,0,0.7,0.3,0.7,0.7l0.1,4.2&#10;&#9;&#9;C286.5,296.6,286.2,296.9,285.8,297L285.8,297z M286,288.7c-0.2,0-0.3,0-0.4-0.1c-0.3-0.2-0.4-0.7-0.2-1c0,0,0,0,0,0l2.5-3.3&#10;&#9;&#9;c0.2-0.3,0.7-0.4,1-0.2c0.3,0.2,0.4,0.7,0.2,1c0,0,0,0,0,0.1l-2.5,3.3C286.4,288.6,286.2,288.7,286,288.7L286,288.7z M291.1,282.1&#10;&#9;&#9;c-0.2,0-0.3,0-0.4-0.1c-0.3-0.2-0.4-0.7-0.1-1c0,0,0,0,0,0l2.5-3.3c0.2-0.3,0.7-0.4,1-0.1c0.3,0.2,0.4,0.7,0.1,1l0,0l-2.5,3.3&#10;&#9;&#9;C291.5,282,291.3,282.1,291.1,282.1L291.1,282.1z M296.1,275.5c-0.4,0-0.7-0.3-0.7-0.7c0-0.1,0.1-0.3,0.1-0.4l2.5-3.3&#10;&#9;&#9;c0.2-0.3,0.7-0.4,1-0.1c0,0,0,0,0,0c0.3,0.2,0.4,0.7,0.2,1c0,0,0,0,0,0l-2.5,3.3C296.6,275.4,296.3,275.5,296.1,275.5L296.1,275.5z&#10;&#9;&#9; M301.2,268.8c-0.2,0-0.3-0.1-0.4-0.1c-0.3-0.2-0.4-0.7-0.2-1c0,0,0,0,0,0l2.5-3.3c0.3-0.3,0.7-0.3,1-0.1c0.3,0.2,0.3,0.6,0.1,0.9&#10;&#9;&#9;l-2.5,3.3C301.6,268.7,301.4,268.8,301.2,268.8L301.2,268.8z M306.3,262.2c-0.2,0-0.3-0.1-0.4-0.1c-0.3-0.2-0.4-0.7-0.1-1l2.5-3.3&#10;&#9;&#9;c0.2-0.3,0.7-0.4,1-0.1c0,0,0,0,0,0c0.3,0.2,0.4,0.7,0.2,1c0,0,0,0,0,0l-2.5,3.3C306.7,262.1,306.5,262.2,306.3,262.2L306.3,262.2z&#10;&#9;&#9; M311.3,255.5c-0.2,0-0.3,0-0.4-0.1c-0.3-0.2-0.4-0.7-0.2-1c0,0,0,0,0,0l2.5-3.3c0.2-0.3,0.7-0.4,1-0.2c0,0,0,0,0,0&#10;&#9;&#9;c0.3,0.2,0.4,0.7,0.2,1c0,0,0,0,0,0l-2.5,3.3C311.8,255.4,311.5,255.5,311.3,255.5L311.3,255.5z M316.4,248.9&#10;&#9;&#9;c-0.2,0-0.3-0.1-0.4-0.1c-0.3-0.2-0.4-0.7-0.1-1c0,0,0,0,0,0l2.5-3.3c0.2-0.3,0.7-0.4,1-0.1c0,0,0,0,0,0c0.3,0.2,0.4,0.7,0.1,1&#10;&#9;&#9;l-2.5,3.3C316.8,248.8,316.6,248.9,316.4,248.9L316.4,248.9z M321.5,242.3c-0.2,0-0.3,0-0.4-0.1c-0.3-0.2-0.4-0.7-0.2-1&#10;&#9;&#9;c0,0,0,0,0,0l2.5-3.3c0.3-0.3,0.7-0.3,1-0.1c0.3,0.2,0.3,0.6,0.1,0.9L322,242C321.9,242.2,321.7,242.3,321.5,242.3L321.5,242.3z&#10;&#9;&#9; M326.5,235.6c-0.2,0-0.3,0-0.4-0.1c-0.3-0.2-0.4-0.7-0.1-1c0,0,0,0,0,0l2.5-3.3c0.2-0.3,0.7-0.4,1-0.2c0,0,0,0,0,0&#10;&#9;&#9;c0.3,0.2,0.4,0.7,0.1,1c0,0,0,0,0,0l-2.5,3.3C327,235.5,326.7,235.6,326.5,235.6L326.5,235.6z M331.6,229c-0.4,0-0.7-0.3-0.7-0.7&#10;&#9;&#9;c0-0.2,0-0.3,0.2-0.5l2.5-3.3c0.2-0.3,0.7-0.4,1-0.2c0,0,0,0,0,0c0.3,0.2,0.4,0.7,0.2,1c0,0,0,0,0,0l-2.5,3.3&#10;&#9;&#9;C332,228.9,331.8,229,331.6,229L331.6,229z M336.7,222.3c-0.2,0-0.3-0.1-0.4-0.1c-0.3-0.2-0.4-0.7-0.2-1c0,0,0,0,0,0l2.5-3.3&#10;&#9;&#9;c0.2-0.3,0.7-0.4,1-0.1c0,0,0,0,0,0c0.3,0.2,0.4,0.7,0.2,1c0,0,0,0,0,0l-2.5,3.3C337.1,222.2,336.9,222.4,336.7,222.3L336.7,222.3z&#10;&#9;&#9; M341.7,215.7c-0.4,0-0.7-0.3-0.7-0.7c0-0.1,0.1-0.3,0.1-0.4l2.5-3.3c0.2-0.3,0.7-0.4,1-0.1c0.3,0.2,0.4,0.7,0.1,1l0,0l-2.5,3.3&#10;&#9;&#9;C342.1,215.6,341.9,215.7,341.7,215.7L341.7,215.7z M346.8,209.1c-0.2,0-0.3-0.1-0.4-0.1c-0.3-0.2-0.4-0.7-0.2-1c0,0,0,0,0,0&#10;&#9;&#9;l2.5-3.3c0.2-0.3,0.7-0.4,1-0.1c0,0,0,0,0,0c0.3,0.2,0.4,0.7,0.2,1c0,0,0,0,0,0l-2.5,3.3C347.2,209,347,209.1,346.8,209.1&#10;&#9;&#9;L346.8,209.1z M351.9,202.4c-0.2,0-0.3-0.1-0.4-0.1c-0.3-0.2-0.4-0.7-0.1-1l2.5-3.3c0.2-0.3,0.7-0.4,1-0.2c0,0,0,0,0,0&#10;&#9;&#9;c0.3,0.2,0.4,0.7,0.1,1c0,0,0,0,0,0l-2.5,3.3C352.3,202.3,352.1,202.4,351.9,202.4L351.9,202.4z M356.9,195.8&#10;&#9;&#9;c-0.2,0-0.3-0.1-0.4-0.1c-0.3-0.2-0.4-0.7-0.2-1c0,0,0,0,0,0l2.5-3.3c0.2-0.3,0.7-0.4,1-0.2c0.3,0.2,0.4,0.7,0.2,1c0,0,0,0,0,0.1&#10;&#9;&#9;l-2.5,3.3C357.3,195.7,357.1,195.8,356.9,195.8L356.9,195.8z M362,189.1c-0.4,0-0.7-0.3-0.7-0.7c0-0.2,0-0.3,0.1-0.4l2.5-3.3&#10;&#9;&#9;c0.2-0.3,0.7-0.4,1-0.2c0,0,0,0,0,0c0.3,0.2,0.4,0.7,0.1,1c0,0,0,0,0,0l-2.5,3.3C362.4,189.1,362.2,189.2,362,189.1L362,189.1z"/>
	<path class="st1_network-1-73" d="M367,182.5c-0.4,0-0.7-0.3-0.7-0.7c0-0.2,0-0.3,0.2-0.5l0.8-1.1l-1.1-0.7c-0.3-0.2-0.4-0.6-0.2-1c0,0,0,0,0,0&#10;&#9;&#9;c0.2-0.3,0.6-0.4,1-0.2c0,0,0,0,0,0l1.8,1.1c0.2,0.1,0.3,0.3,0.3,0.5c0,0.2,0,0.4-0.1,0.6l-1.3,1.7&#10;&#9;&#9;C367.5,182.4,367.3,182.5,367,182.5z"/>
	<path class="st1_network-1-73" d="M125.4,190.4c-0.2,0-0.4-0.1-0.5-0.2c-0.3-0.3-0.3-0.7,0-1c0,0,0,0,0,0l3-2.9c0.3-0.3,0.7-0.3,1,0&#10;&#9;&#9;c0.3,0.3,0.3,0.7,0,1c0,0,0,0,0,0l-3,2.9C125.7,190.3,125.5,190.4,125.4,190.4z M131.4,184.6c-0.2,0-0.4-0.1-0.5-0.2&#10;&#9;&#9;c-0.3-0.3-0.3-0.7,0-1c0,0,0,0,0,0l3-2.9c0.3-0.3,0.7-0.3,1,0c0.3,0.3,0.3,0.7,0,1c0,0,0,0,0,0l-3,2.9&#10;&#9;&#9;C131.7,184.6,131.5,184.6,131.4,184.6L131.4,184.6z M137.4,178.8c-0.2,0-0.4-0.1-0.5-0.2c-0.3-0.3-0.3-0.7,0-1c0,0,0,0,0,0l3-2.9&#10;&#9;&#9;c0.3-0.3,0.7-0.3,1,0s0.3,0.7,0,1l0,0l-3,2.9C137.7,178.8,137.5,178.9,137.4,178.8L137.4,178.8z M363,177.5c-0.1,0-0.3,0-0.4-0.1&#10;&#9;&#9;l-3.5-2.2c-0.3-0.2-0.4-0.6-0.2-1s0.6-0.4,1-0.2l3.5,2.2c0.3,0.2,0.4,0.6,0.2,1C363.5,177.4,363.2,177.5,363,177.5L363,177.5z&#10;&#9;&#9; M356,173.1c-0.1,0-0.3,0-0.4-0.1l-3.5-2.2c-0.3-0.2-0.5-0.6-0.3-1s0.6-0.5,1-0.3c0,0,0,0,0.1,0l3.5,2.2c0.3,0.2,0.4,0.6,0.2,1&#10;&#9;&#9;C356.5,172.9,356.2,173.1,356,173.1L356,173.1z M143.2,173.1c-0.2,0-0.4-0.1-0.5-0.2c-0.3-0.3-0.3-0.7,0-1c0,0,0,0,0,0l3-2.9&#10;&#9;&#9;c0.3-0.3,0.7-0.3,1,0s0.3,0.7,0,1l-3,2.9C143.6,173,143.4,173,143.2,173.1L143.2,173.1z M349,168.6c-0.1,0-0.3,0-0.4-0.1l-3.5-2.2&#10;&#9;&#9;c-0.3-0.2-0.4-0.7-0.2-1c0.2-0.3,0.6-0.4,0.9-0.2l3.5,2.2c0.3,0.2,0.4,0.6,0.3,0.9c0,0,0,0,0,0.1&#10;&#9;&#9;C349.5,168.5,349.2,168.6,349,168.6z M149.2,167.2c-0.2,0-0.4-0.1-0.5-0.2c-0.3-0.3-0.3-0.7,0-1c0,0,0,0,0,0l3-2.9&#10;&#9;&#9;c0.3-0.3,0.7-0.3,1,0c0.3,0.3,0.3,0.7,0,1c0,0,0,0,0,0l-3,2.9C149.5,167.2,149.4,167.3,149.2,167.2z M342,164.2&#10;&#9;&#9;c-0.1,0-0.3,0-0.4-0.1l-3.5-2.2c-0.3-0.2-0.4-0.6-0.2-1c0,0,0,0,0,0c0.2-0.3,0.6-0.4,1-0.2c0,0,0,0,0,0l3.5,2.2&#10;&#9;&#9;c0.3,0.2,0.4,0.6,0.2,1c0,0,0,0,0,0C342.5,164.1,342.3,164.2,342,164.2z M155.1,161.5c-0.2,0-0.4-0.1-0.5-0.2c-0.3-0.3-0.3-0.7,0-1&#10;&#9;&#9;c0,0,0,0,0,0l3-2.9c0.3-0.3,0.7-0.3,1,0s0.3,0.7,0,1l-3,2.9C155.5,161.4,155.3,161.5,155.1,161.5L155.1,161.5z M335,159.8&#10;&#9;&#9;c-0.1,0-0.3,0-0.4-0.1l-3.5-2.2c-0.3-0.2-0.5-0.6-0.3-0.9c0.2-0.3,0.6-0.5,0.9-0.3c0,0,0.1,0,0.1,0.1l3.5,2.2&#10;&#9;&#9;c0.3,0.2,0.4,0.6,0.2,1C335.5,159.6,335.2,159.8,335,159.8L335,159.8z M161.1,155.7c-0.2,0-0.4-0.1-0.5-0.2c-0.3-0.3-0.3-0.7,0-1&#10;&#9;&#9;c0,0,0,0,0,0l3-2.9c0.3-0.3,0.7-0.3,1,0c0,0,0,0,0,0c0.3,0.3,0.3,0.7,0,1c0,0,0,0,0,0l-3,2.9C161.5,155.6,161.3,155.7,161.1,155.7&#10;&#9;&#9;L161.1,155.7z M328,155.3c-0.1,0-0.3,0-0.4-0.1l-3.5-2.2c-0.3-0.2-0.4-0.6-0.3-0.9c0,0,0,0,0-0.1c0.2-0.3,0.6-0.4,1-0.2&#10;&#9;&#9;c0,0,0,0,0,0l3.5,2.2c0.3,0.2,0.4,0.6,0.2,1C328.4,155.2,328.2,155.3,328,155.3L328,155.3z M321,150.9c-0.1,0-0.3,0-0.4-0.1&#10;&#9;&#9;l-3.6-2.2c-0.3-0.2-0.4-0.6-0.2-1c0,0,0,0,0,0c0.2-0.3,0.6-0.4,1-0.2c0,0,0,0,0,0l3.5,2.2c0.3,0.2,0.4,0.6,0.2,1c0,0,0,0,0,0&#10;&#9;&#9;C321.4,150.8,321.2,150.9,321,150.9L321,150.9z M167.1,149.9c-0.2,0-0.4-0.1-0.5-0.2c-0.3-0.3-0.3-0.7,0-1c0,0,0,0,0,0l3-2.9&#10;&#9;&#9;c0.3-0.3,0.7-0.3,1,0s0.3,0.7,0,1l-3,2.9C167.4,149.8,167.2,149.9,167.1,149.9L167.1,149.9z M314,146.4c-0.1,0-0.3,0-0.4-0.1&#10;&#9;&#9;l-3.6-2.2c-0.3-0.2-0.4-0.6-0.2-1c0,0,0,0,0,0c0.2-0.3,0.7-0.4,1-0.2c0,0,0,0,0,0l3.5,2.2c0.3,0.2,0.4,0.6,0.2,1c0,0,0,0,0,0&#10;&#9;&#9;C314.4,146.3,314.1,146.4,314,146.4L314,146.4z M173,144.1c-0.4,0-0.7-0.3-0.7-0.7c0-0.2,0.1-0.4,0.2-0.5l3-2.9&#10;&#9;&#9;c0.3-0.3,0.7-0.3,1,0s0.3,0.7,0,1l-3,2.9C173.4,144,173.2,144.1,173,144.1z M306.9,142c-0.1,0-0.3,0-0.4-0.1l-3.5-2.2&#10;&#9;&#9;c-0.3-0.2-0.5-0.6-0.3-1s0.6-0.5,1-0.3c0,0,0,0,0.1,0l3.5,2.2c0.3,0.2,0.4,0.6,0.2,1c0,0,0,0,0,0C307.3,141.9,307.1,142,306.9,142z&#10;&#9;&#9; M178.9,138.3c-0.2,0-0.4-0.1-0.5-0.2c-0.3-0.3-0.3-0.7,0-1c0,0,0,0,0,0l1.9-1.9c0.1-0.1,0.2-0.2,0.4-0.2l1.4-0.3&#10;&#9;&#9;c0.4-0.1,0.8,0.1,0.9,0.5c0.1,0.4-0.1,0.8-0.5,0.9c0,0-0.1,0-0.1,0l-1.2,0.2l-1.8,1.7C179.2,138.2,179.1,138.3,178.9,138.3&#10;&#9;&#9;L178.9,138.3z M299.9,137.6c-0.1,0-0.3,0-0.4-0.1l-3.5-2.2c-0.3-0.2-0.4-0.6-0.3-0.9c0,0,0,0,0-0.1c0.2-0.3,0.6-0.4,1-0.2&#10;&#9;&#9;c0,0,0,0,0,0l3.5,2.2c0.3,0.2,0.4,0.6,0.2,1c0,0,0,0,0,0C300.4,137.5,300.1,137.6,299.9,137.6L299.9,137.6z M186.4,135.4&#10;&#9;&#9;c-0.4,0-0.7-0.3-0.7-0.7c0-0.3,0.2-0.6,0.6-0.7l4.1-0.8c0.4-0.1,0.7,0.2,0.8,0.6c0.1,0.4-0.2,0.7-0.6,0.8l-4.1,0.8L186.4,135.4z&#10;&#9;&#9; M194.5,133.8c-0.4,0-0.7-0.3-0.7-0.7c0-0.3,0.2-0.6,0.5-0.6l4.1-0.8c0.4,0,0.7,0.2,0.8,0.6c0,0.3-0.2,0.7-0.5,0.8l-4.1,0.8&#10;&#9;&#9;L194.5,133.8z M292.9,133.1c-0.1,0-0.3,0-0.4-0.1l-3.5-2.2c-0.3-0.2-0.4-0.6-0.2-1c0,0,0,0,0,0c0.2-0.3,0.6-0.4,1-0.2c0,0,0,0,0,0&#10;&#9;&#9;l3.5,2.2c0.3,0.2,0.4,0.6,0.2,1c0,0,0,0,0,0C293.4,133,293.1,133.2,292.9,133.1L292.9,133.1z M202.7,132.2c-0.4,0-0.7-0.3-0.7-0.7&#10;&#9;&#9;c0-0.3,0.2-0.6,0.6-0.7l4.1-0.8c0.4-0.1,0.8,0.1,0.9,0.5s-0.1,0.8-0.5,0.9c0,0-0.1,0-0.1,0l-4.1,0.8L202.7,132.2z M210.8,130.6&#10;&#9;&#9;c-0.4,0-0.7-0.3-0.7-0.7c0-0.3,0.2-0.6,0.6-0.7l4.1-0.8c0.4-0.1,0.7,0.2,0.8,0.5c0,0,0,0,0,0c0.1,0.4-0.2,0.7-0.6,0.8c0,0,0,0,0,0&#10;&#9;&#9;l-4.1,0.8L210.8,130.6z M219,129.1c-0.3,0-0.6-0.2-0.7-0.6c-0.1-0.4,0.2-0.7,0.6-0.8l4.1-0.8c0.4-0.1,0.8,0.2,0.8,0.6&#10;&#9;&#9;c0.1,0.4-0.2,0.8-0.6,0.8l-4.1,0.8L219,129.1z M285.8,128.7c-0.1,0-0.3,0-0.4-0.1l-3.5-2.2c-0.3-0.2-0.4-0.6-0.2-1c0,0,0,0,0,0&#10;&#9;&#9;c0.2-0.3,0.6-0.4,1-0.2c0,0,0,0,0,0l3.5,2.2c0.3,0.2,0.4,0.6,0.2,1C286.4,128.5,286.1,128.7,285.8,128.7L285.8,128.7z M227.1,127.5&#10;&#9;&#9;c-0.4,0-0.7-0.3-0.7-0.7c0-0.3,0.2-0.6,0.5-0.6l4.1-0.8c0.4-0.1,0.8,0.1,0.9,0.5c0.1,0.4-0.1,0.8-0.5,0.9c0,0-0.1,0-0.1,0l-4.1,0.8&#10;&#9;&#9;L227.1,127.5z M235.3,125.9c-0.3,0-0.6-0.2-0.7-0.6c-0.1-0.4,0.2-0.7,0.5-0.8c0,0,0,0,0,0l4.1-0.8c0.4-0.1,0.8,0.1,0.9,0.5&#10;&#9;&#9;c0.1,0.4-0.1,0.8-0.5,0.9c0,0-0.1,0-0.1,0l-4.1,0.8L235.3,125.9z M243.4,124.3c-0.4,0-0.7-0.3-0.7-0.7c0-0.4,0.2-0.7,0.6-0.7&#10;&#9;&#9;l4.1-0.8c0.4-0.1,0.7,0.2,0.8,0.5c0,0,0,0,0,0c0.1,0.4-0.2,0.7-0.6,0.8l-4.1,0.8L243.4,124.3z M278.8,124.2c-0.1,0-0.3,0-0.4-0.1&#10;&#9;&#9;l-3.5-2.2c-0.3-0.2-0.4-0.6-0.3-0.9c0,0,0,0,0-0.1c0.2-0.3,0.6-0.4,1-0.2c0,0,0,0,0,0l3.5,2.2c0.3,0.2,0.4,0.6,0.3,0.9&#10;&#9;&#9;c0,0,0,0,0,0.1C279.3,124.1,279.1,124.3,278.8,124.2L278.8,124.2z M251.6,122.8c-0.3,0-0.6-0.2-0.7-0.6c-0.1-0.4,0.2-0.7,0.6-0.8&#10;&#9;&#9;c0,0,0,0,0,0l4.1-0.8c0.4-0.1,0.7,0.2,0.8,0.6c0.1,0.4-0.2,0.7-0.5,0.8c0,0,0,0,0,0l-4.1,0.8L251.6,122.8z M259.8,121.2&#10;&#9;&#9;c-0.4,0-0.7-0.3-0.7-0.7c0-0.3,0.2-0.6,0.5-0.6l4.1-0.8c0.4-0.1,0.8,0.1,0.9,0.5s-0.1,0.8-0.5,0.9c0,0-0.1,0-0.1,0l-4.1,0.8&#10;&#9;&#9;L259.8,121.2z M271.8,119.8c-0.1,0-0.3,0-0.4-0.1l-0.9-0.6l-2.5,0.5c-0.4,0.1-0.7-0.2-0.8-0.6c-0.1-0.4,0.2-0.7,0.6-0.8l2.8-0.5&#10;&#9;&#9;c0.2,0,0.4,0,0.5,0.1l1.1,0.7c0.3,0.2,0.4,0.6,0.2,1c0,0,0,0,0,0C272.3,119.7,272,119.8,271.8,119.8L271.8,119.8z"/>
	<path class="st1_network-1-73" d="M121.2,196.9c-0.3,0-0.6-0.3-0.7-0.6l-0.4-2.1c0-0.2,0-0.5,0.2-0.6l1.5-1.5c0.3-0.3,0.7-0.3,1,0&#10;&#9;&#9;c0.3,0.3,0.3,0.7,0,1c0,0,0,0,0,0l-1.2,1.2l0.3,1.7c0.1,0.4-0.2,0.7-0.6,0.8L121.2,196.9z"/>
	<path class="st1_network-1-73" d="M142.1,319.8c-0.3,0-0.6-0.2-0.7-0.6l-0.7-4.1c-0.1-0.4,0.2-0.7,0.6-0.8c0.4-0.1,0.7,0.2,0.8,0.6l0.7,4.1&#10;&#9;&#9;c0.1,0.4-0.2,0.7-0.6,0.8c0,0,0,0,0,0L142.1,319.8z M140.8,311.6c-0.3,0-0.6-0.2-0.7-0.6l-0.7-4.1c-0.1-0.4,0.2-0.7,0.6-0.8&#10;&#9;&#9;c0,0,0,0,0,0c0.4-0.1,0.7,0.2,0.8,0.6c0,0,0,0,0,0l0.7,4.1c0.1,0.4-0.2,0.7-0.6,0.8c0,0,0,0,0,0L140.8,311.6z M139.4,303.4&#10;&#9;&#9;c-0.3,0-0.6-0.2-0.7-0.6l-0.7-4.1c-0.1-0.4,0.2-0.7,0.6-0.8c0.4-0.1,0.7,0.2,0.8,0.6l0.7,4.1c0.1,0.4-0.2,0.7-0.6,0.8c0,0,0,0,0,0&#10;&#9;&#9;L139.4,303.4z M138,295.2c-0.3,0-0.6-0.2-0.7-0.6l-0.7-4.1c-0.1-0.4,0.2-0.7,0.6-0.8c0,0,0,0,0,0c0.4-0.1,0.7,0.2,0.8,0.6&#10;&#9;&#9;c0,0,0,0,0,0l0.7,4.1c0.1,0.4-0.2,0.7-0.6,0.8c0,0,0,0,0,0L138,295.2z M136.6,287c-0.3,0-0.6-0.2-0.7-0.6l-0.7-4.1&#10;&#9;&#9;c-0.1-0.4,0.2-0.7,0.6-0.8c0,0,0,0,0,0c0.4-0.1,0.7,0.2,0.8,0.6l0.7,4.1c0.1,0.4-0.2,0.7-0.6,0.8c0,0,0,0,0,0L136.6,287z&#10;&#9;&#9; M135.2,278.8c-0.3,0-0.6-0.2-0.7-0.6l-0.7-4.1c-0.1-0.4,0.2-0.7,0.5-0.8c0.4-0.1,0.7,0.2,0.8,0.5c0,0,0,0,0,0.1l0.7,4.1&#10;&#9;&#9;c0.1,0.4-0.2,0.7-0.6,0.8c0,0,0,0,0,0L135.2,278.8z M133.8,270.6c-0.3,0-0.6-0.3-0.7-0.6l-0.7-4.1c-0.1-0.4,0.2-0.7,0.5-0.8&#10;&#9;&#9;c0,0,0,0,0,0c0.4-0.1,0.7,0.2,0.8,0.6l0.7,4.1c0.1,0.4-0.2,0.7-0.6,0.8L133.8,270.6z M132.4,262.4c-0.3,0-0.6-0.2-0.7-0.6l-0.7-4.1&#10;&#9;&#9;c-0.1-0.4,0.2-0.7,0.6-0.8c0.4-0.1,0.7,0.2,0.8,0.6l0.7,4.1c0.1,0.4-0.2,0.7-0.5,0.8c0,0,0,0,0,0L132.4,262.4z M131,254.2&#10;&#9;&#9;c-0.3,0-0.6-0.3-0.7-0.6l-0.7-4.1c-0.1-0.4,0.2-0.7,0.5-0.8c0,0,0,0,0,0c0.4-0.1,0.7,0.2,0.8,0.6c0,0,0,0,0,0l0.7,4.1&#10;&#9;&#9;c0.1,0.4-0.2,0.7-0.6,0.8L131,254.2z M129.6,246c-0.3,0-0.6-0.2-0.7-0.6l-0.7-4.1c-0.1-0.4,0.2-0.7,0.6-0.8&#10;&#9;&#9;c0.4-0.1,0.7,0.2,0.8,0.6l0.7,4.1c0.1,0.4-0.2,0.7-0.6,0.8c0,0,0,0,0,0L129.6,246z M128.2,237.8c-0.3,0-0.6-0.3-0.7-0.6l-0.7-4.1&#10;&#9;&#9;c-0.1-0.4,0.2-0.7,0.5-0.8c0,0,0,0,0,0c0.4-0.1,0.7,0.2,0.8,0.6l0.7,4.1c0.1,0.4-0.2,0.7-0.6,0.8c0,0,0,0,0,0L128.2,237.8z&#10;&#9;&#9; M126.8,229.6c-0.3,0-0.6-0.2-0.7-0.6l-0.7-4.1c-0.1-0.4,0.2-0.7,0.6-0.8c0,0,0,0,0,0c0.4-0.1,0.7,0.2,0.8,0.6l0.7,4.1&#10;&#9;&#9;c0.1,0.4-0.2,0.7-0.6,0.8c0,0,0,0,0,0L126.8,229.6z M125.4,221.4c-0.3,0-0.6-0.2-0.7-0.6l-0.7-4.1c-0.1-0.4,0.2-0.7,0.6-0.8&#10;&#9;&#9;c0,0,0,0,0,0c0.4-0.1,0.7,0.2,0.8,0.6c0,0,0,0,0,0l0.7,4.1c0.1,0.4-0.2,0.7-0.6,0.8c0,0,0,0,0,0L125.4,221.4z M124,213.2&#10;&#9;&#9;c-0.3,0-0.6-0.2-0.7-0.6l-0.7-4.1c-0.1-0.4,0.2-0.7,0.6-0.8c0,0,0,0,0,0c0.4-0.1,0.7,0.2,0.8,0.6l0.7,4.1c0.1,0.4-0.2,0.7-0.6,0.8&#10;&#9;&#9;L124,213.2z M122.6,205c-0.3,0-0.6-0.2-0.7-0.6l-0.7-4.1c0-0.4,0.2-0.7,0.6-0.8c0.4,0,0.7,0.2,0.8,0.6l0.7,4.1&#10;&#9;&#9;c0.1,0.4-0.2,0.7-0.6,0.8c0,0,0,0,0,0L122.6,205z"/>
	<path class="st1_network-1-73" d="M143.2,326c-0.3,0-0.6-0.3-0.7-0.6l-0.4-2.1c-0.1-0.4,0.2-0.7,0.6-0.8c0,0,0,0,0,0c0.4-0.1,0.7,0.2,0.8,0.6&#10;&#9;&#9;c0,0,0,0,0,0l0.2,1.3l1.2-0.4c0.4-0.1,0.8,0,0.9,0.4c0.1,0.4,0,0.8-0.4,0.9c0,0-0.1,0-0.1,0l-2,0.6C143.4,326,143.3,326,143.2,326z&#10;&#9;&#9;"/>
	<path class="st1_network-1-73" d="M149.2,324c-0.4,0-0.7-0.3-0.7-0.7c0-0.3,0.2-0.6,0.5-0.7l4-1.3c0.4-0.1,0.8,0.1,0.9,0.5&#10;&#9;&#9;c0.1,0.4-0.1,0.8-0.5,0.9l-4,1.3C149.3,324,149.3,324,149.2,324z M157.2,321.5c-0.4,0-0.7-0.3-0.7-0.7c0-0.3,0.2-0.6,0.5-0.7l4-1.3&#10;&#9;&#9;c0.4-0.1,0.7,0.1,0.9,0.4c0,0,0,0,0,0c0.1,0.4-0.1,0.8-0.4,0.9l-4,1.3L157.2,321.5z M165.2,319c-0.3,0-0.6-0.2-0.7-0.5&#10;&#9;&#9;c-0.1-0.4,0.1-0.8,0.4-0.9l4-1.3c0.4-0.1,0.8,0,0.9,0.4c0.1,0.4,0,0.8-0.4,0.9c0,0-0.1,0-0.1,0l-4,1.3&#10;&#9;&#9;C165.3,319,165.3,319,165.2,319L165.2,319z M173.2,316.5c-0.4,0-0.7-0.3-0.7-0.7c0-0.3,0.2-0.6,0.5-0.7l4-1.3&#10;&#9;&#9;c0.4-0.1,0.8,0,0.9,0.4c0.1,0.4,0,0.8-0.4,0.9c0,0-0.1,0-0.1,0l-4,1.3L173.2,316.5z M181.2,313.9c-0.4,0-0.7-0.3-0.7-0.7&#10;&#9;&#9;c0-0.3,0.2-0.6,0.5-0.7l4-1.3c0.4-0.1,0.8,0.2,0.8,0.5c0.1,0.3-0.1,0.7-0.4,0.8l-4,1.3C181.3,313.9,181.3,313.9,181.2,313.9&#10;&#9;&#9;L181.2,313.9z M189.2,311.4c-0.4,0.1-0.7-0.2-0.8-0.6c-0.1-0.4,0.2-0.7,0.6-0.8l4-1.3c0.4-0.1,0.8,0,0.9,0.4c0.1,0.4,0,0.8-0.4,0.9&#10;&#9;&#9;c0,0,0,0-0.1,0l-4,1.3L189.2,311.4z M197.2,308.9c-0.4,0-0.7-0.3-0.7-0.7c0-0.3,0.2-0.6,0.5-0.7l4-1.3c0.4-0.1,0.8,0,0.9,0.4&#10;&#9;&#9;c0.1,0.4,0,0.8-0.4,0.9c0,0-0.1,0-0.1,0l-4,1.3C197.3,308.9,197.3,308.9,197.2,308.9L197.2,308.9z M205.2,306.3&#10;&#9;&#9;c-0.4,0-0.7-0.4-0.6-0.8c0-0.3,0.2-0.5,0.4-0.6l4-1.3c0.4-0.1,0.8,0,0.9,0.4c0.1,0.4,0,0.8-0.4,0.9c0,0-0.1,0-0.1,0l-4,1.3&#10;&#9;&#9;L205.2,306.3z M213.2,303.8c-0.4,0-0.7-0.3-0.7-0.7c0-0.3,0.2-0.6,0.5-0.7l4-1.3c0.4-0.1,0.8,0.1,0.9,0.5c0.1,0.3-0.1,0.7-0.4,0.8&#10;&#9;&#9;l-4,1.3C213.3,303.8,213.3,303.8,213.2,303.8L213.2,303.8z M221.2,301.3c-0.4,0-0.7-0.3-0.7-0.7c0-0.3,0.2-0.6,0.5-0.7l4-1.3&#10;&#9;&#9;c0.4-0.1,0.8,0.1,0.9,0.5c0,0,0,0,0,0c0.1,0.4-0.1,0.8-0.4,0.9c0,0,0,0,0,0l-4,1.3C221.3,301.3,221.3,301.3,221.2,301.3&#10;&#9;&#9;L221.2,301.3z M229.2,298.8c-0.4,0-0.7-0.3-0.7-0.7c0-0.3,0.2-0.6,0.5-0.7l4-1.3c0.4-0.1,0.8,0,0.9,0.4c0.1,0.4,0,0.8-0.4,0.9&#10;&#9;&#9;c0,0-0.1,0-0.1,0l-4,1.3L229.2,298.8z M237.2,296.2c-0.4,0-0.7-0.3-0.7-0.7c0-0.3,0.2-0.6,0.5-0.7l4-1.3c0.4-0.1,0.8,0.2,0.8,0.5&#10;&#9;&#9;c0.1,0.3-0.1,0.7-0.4,0.8l-4,1.3L237.2,296.2z M245.2,293.7c-0.3,0-0.6-0.2-0.7-0.5c-0.1-0.4,0.1-0.7,0.4-0.9c0,0,0,0,0,0l4-1.3&#10;&#9;&#9;c0.4-0.1,0.8,0.1,0.9,0.5c0,0,0,0,0,0c0.1,0.4-0.1,0.8-0.4,0.9c0,0,0,0,0,0l-4,1.3C245.3,293.7,245.2,293.7,245.2,293.7&#10;&#9;&#9;L245.2,293.7z M253.2,291.2c-0.3,0-0.6-0.2-0.7-0.5c-0.1-0.4,0.1-0.8,0.5-0.9l4-1.3c0.4-0.1,0.8,0.1,0.9,0.5s-0.1,0.8-0.5,0.9l0,0&#10;&#9;&#9;l-4,1.3L253.2,291.2z M261.2,288.6c-0.3,0-0.6-0.2-0.7-0.5c-0.1-0.4,0.1-0.8,0.5-0.9l4-1.3c0.4-0.1,0.8,0.1,0.9,0.5&#10;&#9;&#9;s-0.1,0.8-0.5,0.9l-4,1.3L261.2,288.6z M269.2,286.1c-0.4,0-0.7-0.3-0.7-0.7c0-0.3,0.2-0.5,0.5-0.6l4-1.3c0.4-0.1,0.8,0.1,0.9,0.5&#10;&#9;&#9;s-0.1,0.8-0.5,0.9l0,0l-4,1.3L269.2,286.1z"/>
	<path class="st1_network-1-73" d="M277.1,283.6c-0.4,0-0.7-0.3-0.7-0.7c0-0.3,0.2-0.5,0.5-0.6l0.5-0.2l-0.4-0.2c-0.3-0.2-0.4-0.6-0.2-1&#10;&#9;&#9;c0.2-0.3,0.6-0.4,0.9-0.2l1.8,1c0.3,0.2,0.5,0.6,0.3,1c-0.1,0.2-0.2,0.3-0.4,0.3l-2,0.6L277.1,283.6z"/>
	<path class="st1_network-1-73" d="M273.7,279.8c-0.1,0-0.2,0-0.3-0.1l-3.6-2.1c-0.3-0.2-0.5-0.6-0.3-0.9c0,0,0,0,0,0c0.2-0.3,0.6-0.5,0.9-0.3&#10;&#9;&#9;c0,0,0,0,0.1,0l3.6,2.1c0.3,0.2,0.5,0.6,0.3,1C274.1,279.7,273.9,279.8,273.7,279.8L273.7,279.8z M266.4,275.6&#10;&#9;&#9;c-0.1,0-0.2,0-0.4-0.1l-3.6-2.1c-0.3-0.2-0.5-0.6-0.3-1c0.2-0.3,0.6-0.5,1-0.3l3.6,2.1c0.3,0.2,0.5,0.6,0.3,1&#10;&#9;&#9;C266.9,275.5,266.7,275.6,266.4,275.6z M259.1,271.5c-0.1,0-0.2,0-0.4-0.1l-3.6-2.1c-0.3-0.2-0.5-0.6-0.3-1c0.2-0.3,0.6-0.5,1-0.3&#10;&#9;&#9;l0,0l3.6,2.1c0.3,0.2,0.5,0.6,0.3,1C259.6,271.3,259.4,271.5,259.1,271.5z M251.9,267.3c-0.1,0-0.2,0-0.4-0.1l-3.6-2.1&#10;&#9;&#9;c-0.3-0.2-0.5-0.6-0.3-0.9c0,0,0,0,0-0.1c0.2-0.3,0.6-0.4,0.9-0.3l3.6,2.1c0.3,0.2,0.5,0.6,0.3,1&#10;&#9;&#9;C252.4,267.1,252.1,267.2,251.9,267.3L251.9,267.3z M244.6,263.1c-0.1,0-0.2,0-0.4-0.1l-3.6-2.1c-0.3-0.2-0.5-0.6-0.3-0.9&#10;&#9;&#9;c0.2-0.3,0.6-0.5,0.9-0.3c0,0,0,0,0.1,0l3.6,2.1c0.3,0.2,0.4,0.6,0.2,1C245,263,244.8,263.1,244.6,263.1z M237.3,258.9&#10;&#9;&#9;c-0.1,0-0.2,0-0.4-0.1l-3.6-2.1c-0.3-0.2-0.5-0.6-0.3-0.9c0.2-0.3,0.6-0.5,0.9-0.3c0,0,0,0,0.1,0l3.6,2.1c0.3,0.2,0.4,0.6,0.2,1&#10;&#9;&#9;C237.8,258.8,237.6,258.9,237.3,258.9L237.3,258.9z M230,254.7c-0.1,0-0.2,0-0.4-0.1l-3.6-2.1c-0.3-0.2-0.4-0.6-0.2-1&#10;&#9;&#9;c0.2-0.3,0.6-0.4,0.9-0.2l3.6,2.1c0.3,0.2,0.4,0.6,0.2,1C230.5,254.6,230.2,254.7,230,254.7L230,254.7z M222.7,250.6&#10;&#9;&#9;c-0.1,0-0.2,0-0.3-0.1l-3.6-2.1c-0.3-0.2-0.5-0.6-0.3-0.9c0,0,0,0,0-0.1c0.2-0.3,0.6-0.5,0.9-0.3c0,0,0,0,0.1,0l3.6,2.1&#10;&#9;&#9;c0.3,0.2,0.5,0.6,0.3,1C223.3,250.4,223,250.5,222.7,250.6L222.7,250.6z M215.4,246.4c-0.1,0-0.2,0-0.4-0.1l-3.6-2.1&#10;&#9;&#9;c-0.3-0.2-0.5-0.6-0.3-1c0,0,0,0,0,0c0.2-0.3,0.6-0.5,0.9-0.3c0,0,0,0,0.1,0l3.6,2.1c0.3,0.2,0.5,0.6,0.3,1&#10;&#9;&#9;C216,246.2,215.7,246.3,215.4,246.4L215.4,246.4z M208.2,242.2c-0.1,0-0.2,0-0.4-0.1l-3.6-2.1c-0.3-0.2-0.5-0.6-0.3-1&#10;&#9;&#9;c0.2-0.3,0.6-0.5,1-0.3l3.6,2.1c0.3,0.2,0.5,0.6,0.3,1C208.7,242,208.5,242.2,208.2,242.2L208.2,242.2z M200.9,238&#10;&#9;&#9;c-0.1,0-0.2,0-0.4-0.1l-3.6-2.1c-0.3-0.2-0.5-0.6-0.3-0.9c0,0,0,0,0-0.1c0.2-0.3,0.6-0.4,0.9-0.3l3.6,2.1c0.3,0.2,0.5,0.6,0.3,1&#10;&#9;&#9;C201.4,237.8,201.2,238,200.9,238L200.9,238z M193.6,233.8c-0.1,0-0.2,0-0.4-0.1l-3.6-2.1c-0.3-0.2-0.5-0.6-0.3-0.9&#10;&#9;&#9;c0.2-0.3,0.6-0.5,0.9-0.3c0,0,0,0,0.1,0l3.6,2.1c0.3,0.2,0.4,0.6,0.2,1C194.1,233.7,193.9,233.8,193.6,233.8z M186.4,229.6&#10;&#9;&#9;c-0.1,0-0.2,0-0.4-0.1l-3.6-2.1c-0.3-0.2-0.5-0.6-0.3-0.9c0.2-0.3,0.6-0.5,0.9-0.3c0,0,0,0,0.1,0l3.6,2.1c0.3,0.2,0.4,0.6,0.2,1&#10;&#9;&#9;C186.8,229.5,186.6,229.6,186.4,229.6L186.4,229.6z M179.1,225.5c-0.1,0-0.2,0-0.4-0.1l-3.6-2.1c-0.3-0.2-0.4-0.6-0.2-1&#10;&#9;&#9;c0.2-0.3,0.6-0.4,0.9-0.2l3.6,2.1c0.3,0.2,0.4,0.6,0.2,1C179.6,225.3,179.3,225.5,179.1,225.5L179.1,225.5z M171.8,221.3&#10;&#9;&#9;c-0.1,0-0.2,0-0.3-0.1l-3.6-2.1c-0.3-0.2-0.5-0.6-0.3-0.9c0,0,0,0,0-0.1c0.2-0.3,0.6-0.5,0.9-0.3c0,0,0,0,0.1,0l3.6,2.1&#10;&#9;&#9;c0.3,0.2,0.5,0.6,0.3,1C172.3,221.1,172.1,221.2,171.8,221.3L171.8,221.3z M164.5,217.1c-0.1,0-0.2,0-0.4-0.1l-3.6-2&#10;&#9;&#9;c-0.3-0.2-0.5-0.6-0.3-1c0.2-0.3,0.6-0.5,1-0.3l3.6,2.1c0.3,0.2,0.5,0.6,0.3,1C165,217,164.8,217.2,164.5,217.1L164.5,217.1z&#10;&#9;&#9; M157.3,213c-0.1,0-0.2,0-0.4-0.1l-3.6-2.1c-0.3-0.2-0.5-0.6-0.3-1c0.2-0.3,0.6-0.5,1-0.3l0,0l3.6,2.1c0.3,0.2,0.5,0.6,0.3,1&#10;&#9;&#9;C157.8,212.9,157.5,213,157.3,213L157.3,213z M150,208.8c-0.1,0-0.2,0-0.4-0.1l-3.6-2.1c-0.3-0.2-0.5-0.6-0.3-1s0.6-0.5,1-0.3&#10;&#9;&#9;l3.6,2.1c0.3,0.2,0.5,0.6,0.3,0.9c0,0,0,0,0,0.1C150.5,208.7,150.2,208.8,150,208.8z M142.7,204.6c-0.1,0-0.2,0-0.4-0.1l-3.6-2.1&#10;&#9;&#9;c-0.3-0.2-0.5-0.6-0.3-0.9c0.2-0.3,0.6-0.5,0.9-0.3c0,0,0,0,0.1,0l3.6,2.1c0.3,0.2,0.4,0.6,0.2,1&#10;&#9;&#9;C143.2,204.5,143,204.6,142.7,204.6z M135.4,200.4c-0.1,0-0.2,0-0.4-0.1l-3.6-2.1c-0.3-0.2-0.5-0.6-0.3-0.9&#10;&#9;&#9;c0.2-0.3,0.6-0.5,0.9-0.3c0,0,0,0,0.1,0l3.6,2.1c0.3,0.2,0.4,0.6,0.2,1C135.9,200.3,135.7,200.4,135.4,200.4L135.4,200.4z"/>
	<path class="st1_network-1-73" d="M128.1,196.2c-0.1,0-0.2,0-0.3-0.1l-1.8-1c-0.3-0.2-0.5-0.6-0.3-1c0.2-0.3,0.6-0.5,1-0.3l1.8,1.1&#10;&#9;&#9;c0.3,0.2,0.5,0.6,0.3,0.9c0,0,0,0,0,0C128.6,196.1,128.4,196.2,128.1,196.2z"/>
	<path class="st1_network-1-73" d="M257.4,208.8c-0.2,0-0.4-0.1-0.5-0.2c-0.3-0.3-0.3-0.7-0.1-1c0.2-0.3,0.6-0.3,0.9-0.1c0,0,0,0,0,0l0.1,0.1&#10;&#9;&#9;c0.3,0.3,0.3,0.7,0,1c0,0,0,0,0,0C257.7,208.7,257.5,208.8,257.4,208.8z M254.2,205.8c-0.2,0-0.4-0.1-0.5-0.2l-3.1-2.9&#10;&#9;&#9;c-0.3-0.2-0.4-0.6-0.2-1c0.2-0.3,0.6-0.4,1-0.2c0.1,0,0.1,0.1,0.2,0.2l3.1,2.9c0.3,0.3,0.3,0.7,0,1&#10;&#9;&#9;C254.6,205.8,254.4,205.8,254.2,205.8L254.2,205.8z M248,200.1c-0.2,0-0.3-0.1-0.5-0.2l-3.1-2.9c-0.3-0.3-0.3-0.7,0-1c0,0,0,0,0,0&#10;&#9;&#9;c0.3-0.3,0.7-0.3,1,0l3.1,2.9c0.3,0.3,0.3,0.7,0,1C248.4,200.1,248.2,200.2,248,200.1L248,200.1z M241.8,194.4&#10;&#9;&#9;c-0.2,0-0.3-0.1-0.5-0.2l-3.1-2.9c-0.3-0.3-0.3-0.7,0-1c0,0,0,0,0,0c0.3-0.3,0.7-0.3,1,0l3.1,2.9c0.3,0.3,0.3,0.7,0,1&#10;&#9;&#9;C242.3,194.4,242.1,194.5,241.8,194.4L241.8,194.4z M235.7,188.7c-0.2,0-0.3-0.1-0.5-0.2l-3.1-2.9c-0.3-0.3-0.3-0.7,0-1&#10;&#9;&#9;s0.7-0.3,1,0l0,0l3.1,2.9c0.3,0.3,0.3,0.7,0,1c0,0,0,0,0,0C236.1,188.6,235.9,188.7,235.7,188.7L235.7,188.7z M229.6,183&#10;&#9;&#9;c-0.2,0-0.3-0.1-0.5-0.2L226,180c-0.3-0.3-0.3-0.7,0-1c0.3-0.3,0.7-0.3,1,0c0,0,0,0,0,0l3.1,2.9c0.3,0.3,0.3,0.7,0,1c0,0,0,0,0,0&#10;&#9;&#9;C229.9,183,229.7,183,229.6,183z M223.4,177.3c-0.2,0-0.3-0.1-0.5-0.2l-3.1-2.9c-0.3-0.3-0.3-0.7,0-1c0.3-0.3,0.7-0.3,1,0&#10;&#9;&#9;c0,0,0,0,0,0l3.1,2.9c0.3,0.3,0.3,0.7,0,1C223.8,177.2,223.6,177.3,223.4,177.3L223.4,177.3z M217.2,171.6c-0.2,0-0.3-0.1-0.5-0.2&#10;&#9;&#9;l-3.1-2.9c-0.3-0.2-0.4-0.6-0.2-1c0.2-0.3,0.6-0.4,1-0.2c0.1,0,0.1,0.1,0.2,0.2l3.1,2.9c0.3,0.3,0.3,0.7,0.1,1&#10;&#9;&#9;C217.6,171.5,217.4,171.6,217.2,171.6L217.2,171.6z M211.1,165.9c-0.2,0-0.3-0.1-0.5-0.2l-3.1-2.9c-0.3-0.3-0.3-0.7,0-1&#10;&#9;&#9;c0,0,0,0,0,0c0.3-0.3,0.7-0.3,1,0c0,0,0,0,0,0l3.1,2.9c0.3,0.3,0.3,0.7,0.1,1C211.5,165.8,211.3,165.9,211.1,165.9L211.1,165.9z&#10;&#9;&#9; M204.9,160.2c-0.2,0-0.3-0.1-0.5-0.2l-3.1-2.9c-0.3-0.3-0.3-0.7,0-1c0,0,0,0,0,0c0.3-0.3,0.7-0.3,1,0c0,0,0,0,0,0l3.1,2.9&#10;&#9;&#9;c0.3,0.3,0.3,0.7,0.1,1C205.4,160.1,205.2,160.2,204.9,160.2L204.9,160.2z M198.7,154.5c-0.2,0-0.3-0.1-0.5-0.2l-3.1-2.9&#10;&#9;&#9;c-0.3-0.3-0.3-0.7,0-1s0.7-0.3,1,0l3.1,2.9c0.3,0.3,0.3,0.7,0.1,1C199.2,154.4,199,154.5,198.7,154.5L198.7,154.5z M192.6,148.7&#10;&#9;&#9;c-0.2,0-0.4-0.1-0.5-0.2l-3.1-2.8c-0.3-0.3-0.3-0.7,0-1c0.3-0.3,0.7-0.3,1,0c0,0,0,0,0,0l3.1,2.9c0.3,0.3,0.3,0.7,0,1&#10;&#9;&#9;C193,148.7,192.8,148.8,192.6,148.7L192.6,148.7z M186.4,143c-0.2,0-0.4-0.1-0.5-0.2l-3.1-2.8c-0.3-0.3-0.3-0.7,0-1&#10;&#9;&#9;c0.3-0.3,0.7-0.3,1,0c0,0,0,0,0,0l3.1,2.9c0.3,0.3,0.3,0.7,0,1c0,0,0,0,0,0C186.8,143,186.6,143,186.4,143z"/>
	<path class="st1_network-1-73" d="M285.6,289.2c-0.3,0-0.6-0.2-0.7-0.5l-1.3-3.8c-0.1-0.4,0.1-0.8,0.4-0.9c0.4-0.1,0.8,0.1,0.9,0.4l1.3,3.8&#10;&#9;&#9;c0.1,0.4-0.1,0.8-0.4,0.9c0,0,0,0,0,0C285.8,289.2,285.7,289.2,285.6,289.2z M282.9,281.4c-0.3,0-0.6-0.2-0.7-0.5l-1.4-4&#10;&#9;&#9;c-0.1-0.4,0-0.8,0.4-0.9c0.4-0.1,0.8,0,0.9,0.4c0,0,0,0,0,0.1l1.4,4c0.1,0.4-0.1,0.8-0.4,0.9c0,0,0,0,0,0&#10;&#9;&#9;C283.1,281.4,283,281.4,282.9,281.4L282.9,281.4z M280.1,273.5c-0.3,0-0.6-0.2-0.7-0.5l-1.4-4c-0.1-0.4,0.1-0.8,0.4-0.9&#10;&#9;&#9;c0.4-0.1,0.8,0.1,0.9,0.4c0,0,0,0,0,0l1.4,4c0.1,0.4-0.1,0.8-0.4,0.9c0,0,0,0,0,0C280.3,273.5,280.2,273.5,280.1,273.5L280.1,273.5&#10;&#9;&#9;z M277.3,265.6c-0.3,0-0.6-0.2-0.7-0.5l-1.4-4c-0.1-0.4,0.1-0.8,0.4-0.9c0,0,0,0,0,0c0.4-0.1,0.8,0.1,0.9,0.4l1.4,4&#10;&#9;&#9;c0.1,0.4-0.1,0.8-0.4,0.9c0,0,0,0,0,0C277.5,265.6,277.4,265.6,277.3,265.6L277.3,265.6z M274.6,257.6c-0.3,0-0.6-0.2-0.7-0.5&#10;&#9;&#9;l-1.4-4c-0.1-0.4,0-0.8,0.4-0.9c0.4-0.1,0.8,0,0.9,0.4c0,0,0,0,0,0.1l1.4,4c0.1,0.4-0.1,0.8-0.4,0.9&#10;&#9;&#9;C274.7,257.6,274.6,257.6,274.6,257.6L274.6,257.6z M271.8,249.7c-0.3,0-0.6-0.2-0.7-0.5l-1.4-4c-0.1-0.4,0.1-0.8,0.4-0.9&#10;&#9;&#9;c0.4-0.1,0.8,0.1,0.9,0.4l1.4,4c0.1,0.4-0.1,0.8-0.4,0.9c0,0,0,0,0,0C271.9,249.7,271.8,249.7,271.8,249.7L271.8,249.7z M269,241.8&#10;&#9;&#9;c-0.3,0-0.6-0.2-0.7-0.5l-1.4-4c-0.1-0.4,0-0.8,0.4-0.9c0.4-0.1,0.8,0,0.9,0.4c0,0,0,0,0,0.1l1.4,4c0.1,0.4-0.1,0.8-0.4,0.9&#10;&#9;&#9;c0,0,0,0,0,0C269.2,241.8,269.1,241.8,269,241.8z M266.2,233.9c-0.3,0-0.6-0.2-0.7-0.5l-1.4-4c-0.1-0.4,0.1-0.8,0.4-0.9&#10;&#9;&#9;c0.4-0.1,0.8,0.1,0.9,0.4l0,0l1.4,4c0.1,0.4-0.1,0.8-0.4,0.9C266.4,233.9,266.3,233.9,266.2,233.9L266.2,233.9z M263.4,225.9&#10;&#9;&#9;c-0.3,0-0.6-0.2-0.7-0.5l-1.4-4c-0.1-0.4,0.1-0.8,0.4-0.9c0.4-0.1,0.8,0.1,0.9,0.4c0,0,0,0,0,0l1.4,4c0.1,0.4-0.1,0.8-0.4,0.9&#10;&#9;&#9;c0,0,0,0,0,0C263.6,225.9,263.5,225.9,263.4,225.9L263.4,225.9z M260.6,218c-0.3,0-0.6-0.2-0.7-0.5l-1.4-4&#10;&#9;&#9;c-0.1-0.4,0.1-0.8,0.4-0.9c0,0,0,0,0,0c0.4-0.1,0.8,0.1,0.9,0.4l1.4,4c0.1,0.4-0.1,0.8-0.4,0.9c0,0,0,0,0,0&#10;&#9;&#9;C260.8,218,260.7,218,260.6,218z M257.8,210.1c-0.3,0-0.6-0.2-0.7-0.5l-0.3-0.9l-2.3-0.2c-0.4,0-0.7-0.4-0.6-0.8c0,0,0,0,0,0&#10;&#9;&#9;c0-0.4,0.4-0.7,0.8-0.6l2.8,0.3c0.3,0,0.5,0.2,0.6,0.5l0.5,1.3c0.1,0.4-0.1,0.8-0.4,0.9C258,210.1,257.9,210.1,257.8,210.1&#10;&#9;&#9;L257.8,210.1z M250.4,208.1L250.4,208.1l-4.2-0.4c-0.4,0-0.7-0.4-0.6-0.8c0,0,0,0,0,0c0-0.4,0.4-0.7,0.8-0.6l4.2,0.4&#10;&#9;&#9;c0.4,0,0.7,0.4,0.6,0.8C251.1,207.8,250.8,208.1,250.4,208.1L250.4,208.1z M242,207.2L242,207.2l-4.2-0.4c-0.4,0-0.7-0.4-0.6-0.8&#10;&#9;&#9;c0-0.4,0.4-0.7,0.8-0.6c0,0,0,0,0,0l4.2,0.4c0.4,0,0.7,0.4,0.6,0.8C242.7,206.9,242.4,207.2,242,207.2L242,207.2z M233.7,206.4&#10;&#9;&#9;L233.7,206.4l-4.2-0.4c-0.4,0-0.7-0.4-0.6-0.8c0,0,0,0,0,0c0-0.4,0.4-0.7,0.8-0.6l4.2,0.4c0.4,0,0.7,0.3,0.7,0.7&#10;&#9;&#9;S234.1,206.4,233.7,206.4L233.7,206.4L233.7,206.4z M225.3,205.5L225.3,205.5l-4.2-0.4c-0.4,0-0.7-0.4-0.6-0.8c0,0,0,0,0,0&#10;&#9;&#9;c0-0.4,0.4-0.7,0.8-0.6l4.2,0.4c0.4,0,0.7,0.4,0.6,0.8C226,205.2,225.7,205.5,225.3,205.5L225.3,205.5z M217,204.6L217,204.6&#10;&#9;&#9;l-4.2-0.4c-0.4-0.1-0.6-0.4-0.6-0.8c0.1-0.3,0.4-0.6,0.7-0.6l4.2,0.4c0.4,0.1,0.6,0.4,0.6,0.8C217.6,204.4,217.3,204.6,217,204.6&#10;&#9;&#9;L217,204.6z M208.6,203.8L208.6,203.8l-4.2-0.4c-0.4,0-0.7-0.4-0.6-0.8c0-0.4,0.4-0.7,0.8-0.6l4.2,0.4c0.4,0,0.7,0.3,0.7,0.7&#10;&#9;&#9;S209,203.8,208.6,203.8L208.6,203.8L208.6,203.8z M200.3,202.9L200.3,202.9l-4.2-0.4c-0.4,0-0.7-0.3-0.7-0.7c0-0.4,0.3-0.7,0.7-0.7&#10;&#9;&#9;c0,0,0.1,0,0.1,0l4.2,0.4c0.4,0,0.7,0.4,0.6,0.8C200.9,202.6,200.6,202.9,200.3,202.9L200.3,202.9z M191.9,202.1L191.9,202.1&#10;&#9;&#9;l-4.2-0.4c-0.4,0-0.7-0.4-0.6-0.8c0,0,0,0,0,0c0-0.4,0.4-0.7,0.8-0.6l4.2,0.4c0.4,0,0.7,0.3,0.7,0.7S192.3,202.1,191.9,202.1&#10;&#9;&#9;L191.9,202.1L191.9,202.1z M183.6,201.2L183.6,201.2l-4.2-0.4c-0.4,0-0.7-0.4-0.6-0.8c0,0,0,0,0,0c0-0.4,0.4-0.7,0.8-0.6l4.2,0.4&#10;&#9;&#9;c0.4,0,0.7,0.4,0.6,0.8C184.2,200.9,183.9,201.2,183.6,201.2L183.6,201.2z M175.2,200.4L175.2,200.4l-4.2-0.4&#10;&#9;&#9;c-0.4,0-0.7-0.4-0.6-0.8c0-0.4,0.4-0.6,0.8-0.6l4.2,0.4c0.4,0,0.7,0.4,0.6,0.8C175.9,200.1,175.6,200.3,175.2,200.4L175.2,200.4z&#10;&#9;&#9; M166.8,199.5L166.8,199.5l-4.2-0.4c-0.4,0-0.7-0.4-0.6-0.8c0-0.4,0.4-0.7,0.8-0.6l4.2,0.4c0.4,0,0.7,0.3,0.7,0.7&#10;&#9;&#9;S167.2,199.5,166.8,199.5L166.8,199.5L166.8,199.5z M158.5,198.6L158.5,198.6l-4.2-0.4c-0.4,0-0.7-0.3-0.7-0.7&#10;&#9;&#9;c0-0.4,0.3-0.7,0.7-0.7c0,0,0.1,0,0.1,0l4.2,0.4c0.4,0,0.7,0.4,0.6,0.8C159.1,198.4,158.8,198.6,158.5,198.6L158.5,198.6z&#10;&#9;&#9; M150.1,197.8L150.1,197.8l-4.2-0.4c-0.4,0-0.7-0.4-0.6-0.8c0,0,0,0,0,0c0.1-0.4,0.4-0.6,0.7-0.6l4.2,0.4c0.4,0.1,0.6,0.4,0.6,0.8&#10;&#9;&#9;C150.7,197.6,150.4,197.8,150.1,197.8L150.1,197.8z M141.8,196.9L141.8,196.9l-4.2-0.4c-0.4,0-0.7-0.4-0.6-0.8c0,0,0,0,0,0&#10;&#9;&#9;c0-0.4,0.4-0.7,0.8-0.6l4.2,0.4c0.4,0,0.7,0.3,0.7,0.7S142.2,197,141.8,196.9L141.8,196.9z M133.4,196.1L133.4,196.1l-4.2-0.4&#10;&#9;&#9;c-0.4,0-0.7-0.4-0.6-0.8c0,0,0,0,0,0c0-0.4,0.4-0.7,0.8-0.6l4.2,0.4c0.4,0.1,0.6,0.4,0.6,0.8C134,195.8,133.7,196.1,133.4,196.1&#10;&#9;&#9;L133.4,196.1z M125.1,195.2L125.1,195.2l-4.2-0.4c-0.4,0-0.7-0.4-0.6-0.8c0,0,0,0,0,0c0-0.4,0.4-0.7,0.8-0.6l4.2,0.4&#10;&#9;&#9;c0.4,0,0.7,0.3,0.7,0.7C125.8,195,125.5,195.3,125.1,195.2L125.1,195.2z"/>
	<path class="st1_network-1-73" d="M288.4,374.9c-0.2,0-0.4-0.1-0.5-0.2c-0.3-0.3-0.3-0.7,0-1l3-3c0.3-0.3,0.7-0.3,1,0c0.3,0.3,0.3,0.7,0,1&#10;&#9;&#9;c0,0,0,0,0,0l-3,3C288.8,374.8,288.6,374.9,288.4,374.9z M294.3,368.9c-0.2,0-0.4-0.1-0.5-0.2c-0.3-0.3-0.3-0.7,0-1c0,0,0,0,0,0&#10;&#9;&#9;l3-3c0.3-0.3,0.7-0.3,1,0s0.3,0.7,0,1l-3,3C294.7,368.9,294.5,368.9,294.3,368.9L294.3,368.9z M300.3,363c-0.2,0-0.4-0.1-0.5-0.2&#10;&#9;&#9;c-0.3-0.3-0.3-0.7,0-1l3-3c0.3-0.3,0.7-0.3,1,0s0.3,0.7,0,1l0,0l-3,3C300.6,362.9,300.5,363,300.3,363L300.3,363z M306.3,357.1&#10;&#9;&#9;c-0.4,0-0.7-0.3-0.7-0.7c0-0.2,0.1-0.3,0.2-0.5l3-3c0.3-0.3,0.7-0.3,1,0c0,0,0,0,0,0c0.3,0.3,0.3,0.7,0,1l-3,3&#10;&#9;&#9;C306.6,357,306.4,357.1,306.3,357.1L306.3,357.1z M312.2,351.2c-0.2,0-0.4-0.1-0.5-0.2c-0.3-0.3-0.3-0.7,0-1l3-3&#10;&#9;&#9;c0.3-0.3,0.7-0.3,1,0s0.3,0.7,0,1l-3,3C312.6,351.1,312.4,351.2,312.2,351.2L312.2,351.2z M318.2,345.2c-0.2,0-0.4-0.1-0.5-0.2&#10;&#9;&#9;c-0.3-0.3-0.3-0.7,0-1c0,0,0,0,0,0l3-3c0.3-0.3,0.7-0.3,1,0c0,0,0,0,0,0c0.3,0.3,0.3,0.7,0,1l-3,3&#10;&#9;&#9;C318.5,345.2,318.3,345.2,318.2,345.2L318.2,345.2z M324.1,339.3c-0.4,0-0.7-0.3-0.7-0.7c0-0.2,0.1-0.4,0.2-0.5l3-3&#10;&#9;&#9;c0.3-0.3,0.7-0.3,1,0s0.3,0.7,0,1l-3,3C324.5,339.2,324.3,339.3,324.1,339.3L324.1,339.3z M330.1,333.4c-0.2,0-0.4-0.1-0.5-0.2&#10;&#9;&#9;c-0.3-0.3-0.3-0.7,0-1l3-3c0.3-0.3,0.7-0.3,1,0s0.3,0.7,0,1l-3,3C330.4,333.3,330.2,333.4,330.1,333.4L330.1,333.4z M336.1,327.4&#10;&#9;&#9;c-0.4,0-0.7-0.3-0.7-0.7c0-0.2,0.1-0.3,0.2-0.5l3-3c0.3-0.3,0.7-0.3,1,0c0.3,0.3,0.3,0.7,0,1c0,0,0,0,0,0l-3,3&#10;&#9;&#9;C336.4,327.4,336.2,327.4,336.1,327.4L336.1,327.4z M135.8,324.7c-0.4,0-0.7-0.3-0.7-0.7c0-0.2,0.1-0.4,0.2-0.5l1.2-1.1&#10;&#9;&#9;c0.3-0.3,0.7-0.3,1,0s0.3,0.7,0,1l-1.2,1.1c-0.2,0.2-0.4,0.2-0.6,0.2L135.8,324.7z M342,321.5c-0.2,0-0.4-0.1-0.5-0.2&#10;&#9;&#9;c-0.3-0.3-0.3-0.7,0-1c0,0,0,0,0,0l3-3c0.3-0.3,0.7-0.3,1,0c0,0,0,0,0,0c0.3,0.3,0.3,0.7,0,1c0,0,0,0,0,0l-3,3&#10;&#9;&#9;c-0.2,0.2-0.4,0.2-0.6,0.2L342,321.5z M140,320.7c-0.2,0-0.4-0.1-0.5-0.2c-0.3-0.3-0.3-0.7,0-1c0,0,0,0,0,0l3-2.9&#10;&#9;&#9;c0.3-0.3,0.7-0.3,1,0s0.3,0.7,0,1l-3,2.9c-0.2,0.2-0.4,0.3-0.6,0.2L140,320.7z M348,315.6c-0.2,0-0.4-0.1-0.5-0.2&#10;&#9;&#9;c-0.3-0.3-0.3-0.7,0-1c0,0,0,0,0,0l3-3c0.3-0.3,0.7-0.3,1,0c0,0,0,0,0,0c0.3,0.3,0.3,0.7,0,1l-3,3c-0.2,0.2-0.4,0.3-0.7,0.2&#10;&#9;&#9;L348,315.6z M146,314.9c-0.2,0-0.4-0.1-0.5-0.2c-0.3-0.3-0.3-0.7,0-1c0,0,0,0,0,0l3.1-2.9c0.3-0.3,0.7-0.3,1,0c0,0,0,0,0,0&#10;&#9;&#9;c0.3,0.3,0.3,0.7,0,1c0,0,0,0,0,0l-3,2.9C146.4,314.9,146.2,314.9,146,314.9z M353.9,309.6c-0.4,0-0.7-0.3-0.7-0.7&#10;&#9;&#9;c0-0.2,0.1-0.3,0.2-0.5l3-3c0.3-0.3,0.7-0.3,1,0c0,0,0,0,0,0c0.3,0.3,0.3,0.7,0,1l-3,3C354.2,309.6,354,309.6,353.9,309.6&#10;&#9;&#9;L353.9,309.6z M152,309.1c-0.2,0-0.4-0.1-0.5-0.2c-0.3-0.3-0.3-0.7,0-1c0,0,0,0,0,0l3-2.9c0.3-0.3,0.7-0.3,1,0s0.3,0.7,0,1l0,0&#10;&#9;&#9;l-3,2.9C152.4,309,152.2,309.1,152,309.1z M359.7,303.7c-0.2,0-0.4-0.1-0.5-0.2c-0.3-0.3-0.3-0.7,0-1l3-3c0.3-0.3,0.7-0.3,1,0&#10;&#9;&#9;s0.3,0.7,0,1l-3,3C360.1,303.6,359.9,303.7,359.7,303.7L359.7,303.7z M158.1,303.3c-0.2,0-0.4-0.1-0.5-0.2c-0.3-0.3-0.3-0.7,0-1&#10;&#9;&#9;l3-2.9c0.3-0.3,0.7-0.3,1,0c0,0,0,0,0,0c0.3,0.3,0.3,0.7,0,1l-3,2.9C158.5,303.2,158.3,303.3,158.1,303.3L158.1,303.3z&#10;&#9;&#9; M365.7,297.8c-0.2,0-0.4-0.1-0.5-0.2c-0.3-0.3-0.3-0.7,0-1l3-3c0.3-0.3,0.7-0.3,1,0c0.3,0.3,0.3,0.7,0,1c0,0,0,0,0,0l-3,3&#10;&#9;&#9;C366,297.7,365.9,297.8,365.7,297.8L365.7,297.8z M164.2,297.5c-0.2,0-0.4-0.1-0.5-0.2c-0.3-0.3-0.3-0.7,0-1l3-2.9&#10;&#9;&#9;c0.3-0.3,0.7-0.3,1,0s0.3,0.7,0,1l0,0l-3,2.9C164.5,297.4,164.4,297.5,164.2,297.5L164.2,297.5z M371.6,291.8&#10;&#9;&#9;c-0.2,0-0.4-0.1-0.5-0.2c-0.3-0.3-0.3-0.7,0-1c0,0,0,0,0,0l3-3c0.3-0.3,0.7-0.3,1,0s0.3,0.7,0,1l-3,3&#10;&#9;&#9;C372,291.7,371.8,291.8,371.6,291.8L371.6,291.8z M170.2,291.7c-0.2,0-0.4-0.1-0.5-0.2c-0.3-0.3-0.3-0.7,0-1l3-2.9&#10;&#9;&#9;c0.3-0.3,0.7-0.3,1,0s0.3,0.7,0,1l0,0l-3,2.9C170.6,291.7,170.5,291.7,170.2,291.7L170.2,291.7z M176.3,286c-0.2,0-0.4-0.1-0.5-0.2&#10;&#9;&#9;c-0.3-0.3-0.3-0.7,0-1l3-2.9c0.3-0.3,0.7-0.3,1,0s0.3,0.7,0,1l-3,2.9C176.7,285.9,176.5,286,176.3,286L176.3,286z M377.6,285.9&#10;&#9;&#9;c-0.2,0-0.4-0.1-0.5-0.2c-0.2-0.2-0.3-0.4-0.2-0.7l-0.3-3.9c0-0.4,0.2-0.7,0.6-0.8c0.4,0,0.7,0.3,0.8,0.6l0.4,4.1&#10;&#9;&#9;c0,0.2-0.1,0.4-0.2,0.5C378,285.8,377.8,285.8,377.6,285.9L377.6,285.9z M182.4,280.1c-0.2,0-0.4-0.1-0.5-0.2c-0.3-0.3-0.3-0.7,0-1&#10;&#9;&#9;c0,0,0,0,0,0l3-2.9c0.3-0.3,0.7-0.3,1,0s0.3,0.7,0,1l0,0l-3,2.9C182.8,280.1,182.6,280.1,182.4,280.1L182.4,280.1z M376.9,277.6&#10;&#9;&#9;c-0.4,0-0.7-0.3-0.7-0.6l-0.4-4.2c0-0.4,0.2-0.7,0.6-0.8c0,0,0,0,0,0c0.4,0,0.7,0.2,0.8,0.6l0.4,4.2&#10;&#9;&#9;C377.6,277.2,377.3,277.5,376.9,277.6C377,277.5,377,277.5,376.9,277.6L376.9,277.6z M188.5,274.4c-0.2,0-0.4-0.1-0.5-0.2&#10;&#9;&#9;c-0.3-0.3-0.3-0.7,0-1c0,0,0,0,0,0l3-2.9c0.3-0.3,0.7-0.3,1,0s0.3,0.7,0,1l0,0l-3,2.9C188.9,274.3,188.7,274.3,188.5,274.4&#10;&#9;&#9;L188.5,274.4z M376.1,269.2c-0.4,0-0.7-0.3-0.7-0.6l-0.4-4.2c0-0.4,0.2-0.7,0.6-0.8c0,0,0,0,0,0c0.4,0,0.7,0.3,0.8,0.6l0.4,4.2&#10;&#9;&#9;C376.9,268.8,376.6,269.2,376.1,269.2L376.1,269.2z M194.6,268.6c-0.2,0-0.4-0.1-0.5-0.2c-0.3-0.3-0.3-0.7,0-1c0,0,0,0,0,0l3-2.9&#10;&#9;&#9;c0.3-0.3,0.7-0.3,1,0s0.3,0.7,0,1l-3,2.9C194.9,268.5,194.8,268.5,194.6,268.6L194.6,268.6z M200.7,262.8c-0.2,0-0.4-0.1-0.5-0.2&#10;&#9;&#9;c-0.3-0.3-0.3-0.7,0-1c0,0,0,0,0,0l3-2.9c0.3-0.3,0.7-0.3,1,0c0.3,0.3,0.3,0.7,0,1c0,0,0,0,0,0l-3,2.9&#10;&#9;&#9;C201,262.7,200.9,262.8,200.7,262.8L200.7,262.8z M375.4,260.8c-0.4,0-0.7-0.3-0.7-0.6l-0.4-4.2c0-0.4,0.2-0.7,0.6-0.8&#10;&#9;&#9;c0.4,0,0.7,0.3,0.8,0.6l0.4,4.2C376.1,260.4,375.9,260.8,375.4,260.8C375.5,260.8,375.5,260.8,375.4,260.8L375.4,260.8z M206.8,257&#10;&#9;&#9;c-0.2,0-0.4-0.1-0.5-0.2c-0.3-0.3-0.3-0.7,0-1c0,0,0,0,0,0l3-2.9c0.3-0.3,0.7-0.3,1,0s0.3,0.7,0,1l0,0l-3,2.9&#10;&#9;&#9;C207.1,256.9,207,257,206.8,257z M374.7,252.5c-0.4,0-0.7-0.3-0.7-0.6l-0.4-4.2c0-0.4,0.2-0.7,0.6-0.8c0,0,0,0,0,0&#10;&#9;&#9;c0.4,0,0.7,0.3,0.8,0.6l0.4,4.2C375.4,252.1,375.1,252.4,374.7,252.5C374.8,252.5,374.8,252.5,374.7,252.5L374.7,252.5z&#10;&#9;&#9; M212.9,251.2c-0.2,0-0.4-0.1-0.5-0.2c-0.3-0.3-0.3-0.7,0-1c0,0,0,0,0,0l3-2.9c0.3-0.3,0.7-0.3,1,0s0.3,0.7,0,1l0,0l-3,2.9&#10;&#9;&#9;C213.2,251.1,213,251.2,212.9,251.2L212.9,251.2z M218.9,245.4c-0.2,0-0.4-0.1-0.5-0.2c-0.3-0.3-0.3-0.7,0-1l3-2.9&#10;&#9;&#9;c0.3-0.3,0.7-0.3,1,0c0,0,0,0,0,0c0.3,0.3,0.3,0.7,0,1l-3,2.9C219.3,245.3,219.1,245.4,218.9,245.4L218.9,245.4z M373.9,244.1&#10;&#9;&#9;c-0.4,0-0.7-0.3-0.7-0.6l-0.4-4.2c0-0.4,0.2-0.7,0.6-0.8c0,0,0,0,0,0c0.4,0,0.7,0.3,0.8,0.6l0.4,4.2&#10;&#9;&#9;C374.7,243.7,374.4,244.1,373.9,244.1L373.9,244.1z M225,239.6c-0.2,0-0.4-0.1-0.5-0.2c-0.3-0.3-0.3-0.7,0-1l3-2.9&#10;&#9;&#9;c0.3-0.3,0.7-0.3,1,0c0,0,0,0,0,0c0.3,0.3,0.3,0.7,0,1c0,0,0,0,0,0l-3,2.9C225.4,239.5,225.2,239.6,225,239.6z M373.2,235.7&#10;&#9;&#9;c-0.4,0-0.7-0.3-0.7-0.6l-0.4-4.2c0-0.4,0.3-0.7,0.6-0.8c0.4,0,0.7,0.3,0.8,0.6l0.4,4.2C373.9,235.3,373.6,235.7,373.2,235.7&#10;&#9;&#9;C373.3,235.7,373.3,235.7,373.2,235.7L373.2,235.7z M231.1,233.8c-0.2,0-0.4-0.1-0.5-0.2c-0.3-0.3-0.3-0.7,0-1l3-2.9&#10;&#9;&#9;c0.3-0.3,0.7-0.3,1,0s0.3,0.7,0,1l0,0l-3.1,2.9C231.4,233.7,231.3,233.8,231.1,233.8L231.1,233.8z M237.2,228&#10;&#9;&#9;c-0.2,0-0.4-0.1-0.5-0.2c-0.3-0.3-0.3-0.7,0-1l3-2.9c0.3-0.3,0.7-0.3,1,0c0,0,0,0,0,0c0.3,0.3,0.3,0.7,0,1c0,0,0,0,0,0l-3,2.9&#10;&#9;&#9;C237.5,227.9,237.4,228,237.2,228L237.2,228z M372.5,227.4c-0.4,0-0.7-0.3-0.7-0.6l-0.4-4.2c0-0.4,0.2-0.7,0.6-0.7c0,0,0,0,0,0&#10;&#9;&#9;c0.4,0,0.7,0.2,0.8,0.6l0.4,4.2C373.2,227,372.9,227.3,372.5,227.4C372.5,227.3,372.5,227.3,372.5,227.4L372.5,227.4z M243.2,222.2&#10;&#9;&#9;c-0.2,0-0.4-0.1-0.5-0.2c-0.3-0.3-0.3-0.7,0-1c0,0,0,0,0,0l3-2.9c0.3-0.3,0.7-0.3,1,0s0.3,0.7,0,1l-3,2.9&#10;&#9;&#9;C243.6,222.1,243.4,222.2,243.2,222.2z M371.7,219c-0.4,0-0.7-0.3-0.7-0.6l-0.4-4.2c0-0.4,0.2-0.7,0.6-0.8c0,0,0,0,0,0&#10;&#9;&#9;c0.4,0,0.7,0.2,0.8,0.6l0.4,4.2C372.4,218.6,372.2,219,371.7,219L371.7,219z M249.3,216.4c-0.2,0-0.4-0.1-0.5-0.2&#10;&#9;&#9;c-0.3-0.3-0.3-0.7,0-1c0,0,0,0,0,0l3-2.9c0.3-0.3,0.7-0.3,1,0c0,0,0,0,0,0c0.3,0.3,0.3,0.7,0,1c0,0,0,0,0,0l-3,2.9&#10;&#9;&#9;C249.7,216.3,249.5,216.4,249.3,216.4L249.3,216.4z M371,210.6c-0.4,0-0.7-0.3-0.7-0.6l-0.4-4.2c-0.1-0.4,0.2-0.7,0.6-0.8&#10;&#9;&#9;c0.4-0.1,0.7,0.2,0.8,0.6c0,0,0,0.1,0,0.1l0.4,4.2C371.7,210.2,371.4,210.6,371,210.6L371,210.6z M255.4,210.6&#10;&#9;&#9;c-0.2,0-0.4-0.1-0.5-0.2c-0.3-0.3-0.3-0.7,0-1c0,0,0,0,0,0l1.9-1.9c0.1-0.1,0.2-0.1,0.3-0.2l1.5-0.4c0.4-0.1,0.8,0.1,0.9,0.5&#10;&#9;&#9;c0.1,0.4-0.1,0.8-0.5,0.8l0,0l-1.3,0.3l-1.8,1.7C255.8,210.5,255.6,210.6,255.4,210.6L255.4,210.6z M262.9,207.4&#10;&#9;&#9;c-0.3,0-0.6-0.2-0.7-0.5c-0.1-0.4,0.1-0.8,0.5-0.8c0,0,0,0,0,0l4.1-1c0.4-0.1,0.8,0.1,0.8,0.5c0,0,0,0,0,0c0.1,0.4-0.1,0.7-0.5,0.8&#10;&#9;&#9;c0,0,0,0,0,0l-4.1,1C263,207.4,263,207.4,262.9,207.4L262.9,207.4z M271.1,205.3c-0.3,0-0.6-0.2-0.7-0.5c-0.1-0.4,0.1-0.7,0.5-0.8&#10;&#9;&#9;c0,0,0,0,0,0l4.1-1c0.4-0.1,0.8,0.1,0.9,0.5c0.1,0.4-0.1,0.8-0.5,0.8l0,0l-4.1,1L271.1,205.3z M279.2,203.3c-0.3,0-0.6-0.2-0.7-0.5&#10;&#9;&#9;c-0.1-0.4,0.1-0.7,0.5-0.8c0,0,0,0,0,0l4.1-1c0.4-0.1,0.8,0.1,0.9,0.5c0.1,0.4-0.1,0.8-0.5,0.8l-4.1,1L279.2,203.3z M370.2,202.3&#10;&#9;&#9;c-0.4,0-0.7-0.3-0.7-0.6l-0.4-4.2c0-0.4,0.2-0.7,0.6-0.8c0.4,0,0.7,0.3,0.8,0.6l0.4,4.2C371,201.9,370.7,202.3,370.2,202.3&#10;&#9;&#9;C370.3,202.3,370.3,202.3,370.2,202.3L370.2,202.3z M287.3,201.3c-0.4,0-0.7-0.3-0.7-0.7c0-0.3,0.2-0.6,0.5-0.7l4.1-1&#10;&#9;&#9;c0.4-0.1,0.8,0.1,0.8,0.5c0,0,0,0,0,0c0.1,0.4-0.1,0.7-0.5,0.8c0,0,0,0,0,0l-4.1,1L287.3,201.3z M295.5,199.3&#10;&#9;&#9;c-0.4,0-0.7-0.3-0.7-0.7c0-0.3,0.2-0.6,0.5-0.7l4.1-1c0.4-0.1,0.8,0.1,0.9,0.5c0.1,0.4-0.1,0.8-0.5,0.8l-4.1,1L295.5,199.3z&#10;&#9;&#9; M303.6,197.3c-0.4,0-0.7-0.3-0.7-0.7c0-0.3,0.2-0.6,0.5-0.7l4.1-1c0.4-0.1,0.8,0.1,0.9,0.5c0.1,0.4-0.1,0.8-0.5,0.8c0,0,0,0,0,0&#10;&#9;&#9;l-4.1,1L303.6,197.3z M311.8,195.2c-0.4,0-0.7-0.3-0.7-0.7c0-0.3,0.2-0.6,0.5-0.7l4.1-1c0.4-0.1,0.8,0.1,0.8,0.5c0,0,0,0,0,0&#10;&#9;&#9;c0.1,0.4-0.1,0.7-0.5,0.8c0,0,0,0,0,0l-4.1,1L311.8,195.2z M369.5,194c-0.4,0-0.7-0.3-0.7-0.6l-0.4-4.2c0-0.4,0.2-0.7,0.6-0.8&#10;&#9;&#9;c0,0,0,0,0,0c0.4,0,0.7,0.3,0.8,0.6l0.4,4.2C370.2,193.7,369.9,194,369.5,194L369.5,194z M319.9,193c-0.4,0-0.7-0.3-0.7-0.7&#10;&#9;&#9;c0-0.3,0.2-0.6,0.5-0.7l4.1-1c0.4-0.1,0.8,0.1,0.9,0.4c0.1,0.4-0.1,0.8-0.4,0.9c0,0-0.1,0-0.1,0l-4.1,1L319.9,193z M328.1,190.9&#10;&#9;&#9;c-0.4,0-0.7-0.3-0.7-0.7c0-0.3,0.2-0.6,0.5-0.7l4.1-1c0.4-0.1,0.7,0.2,0.8,0.6c0.1,0.3-0.1,0.7-0.5,0.8l-4.1,1L328.1,190.9z&#10;&#9;&#9; M336.2,188.9c-0.4,0-0.7-0.3-0.7-0.7c0-0.3,0.2-0.6,0.5-0.7l4.1-1c0.4-0.1,0.8,0.1,0.9,0.4c0.1,0.4-0.1,0.8-0.4,0.9&#10;&#9;&#9;c0,0-0.1,0-0.1,0l-4.1,1L336.2,188.9z M344.4,186.9c-0.3,0-0.6-0.2-0.7-0.5c-0.1-0.4,0.1-0.8,0.5-0.9l4.1-1&#10;&#9;&#9;c0.4-0.1,0.8,0.1,0.9,0.4c0.1,0.4-0.1,0.8-0.4,0.9c0,0-0.1,0-0.1,0l-4.1,1L344.4,186.9z M368.7,185.5c-0.4,0-0.7-0.3-0.7-0.6&#10;&#9;&#9;l-0.4-4.2c0-0.4,0.2-0.7,0.6-0.8c0,0,0,0,0,0c0.4,0,0.7,0.3,0.8,0.6l0.4,4.2C369.5,185.2,369.2,185.5,368.7,185.5L368.7,185.5z&#10;&#9;&#9; M352.5,184.8c-0.3,0-0.6-0.2-0.7-0.5c-0.1-0.4,0.1-0.8,0.5-0.9l4.1-1c0.4-0.1,0.8,0.1,0.9,0.4c0.1,0.4-0.1,0.8-0.4,0.9&#10;&#9;&#9;c0,0-0.1,0-0.1,0l-4.1,1L352.5,184.8z M360.7,182.8c-0.4,0-0.7-0.3-0.7-0.7c0-0.3,0.2-0.6,0.5-0.7l4.1-1c0.4-0.1,0.8,0.1,0.8,0.5&#10;&#9;&#9;c0,0,0,0,0,0c0.1,0.4-0.1,0.8-0.5,0.9l-4.1,1L360.7,182.8z"/>
	<path class="st3_network-1-73 targetColor" d="M162.3,324c0,10.5-8.5,19.1-19,19.1c-10.5,0-19.1-8.5-19.1-19c0-10.5,8.5-19.1,19-19.1c0,0,0,0,0.1,0&#10;&#9;&#9;C153.7,305,162.2,313.4,162.3,324C162.3,324,162.3,324,162.3,324z" style="fill: rgb(255, 225, 0);"/>
	<path class="st1_network-1-73" d="M143.2,305c10.5,0,19.1,8.5,19.1,19.1s-8.5,19.1-19.1,19.1c-10.5,0-19.1-8.5-19.1-19.1c0,0,0-0.1,0-0.1&#10;&#9;&#9;C124.2,313.5,132.7,305,143.2,305 M143.2,303.7c-11.2,0-20.4,9.1-20.4,20.3c0,11.2,9.1,20.4,20.3,20.4c6.2,0,12.1-2.8,16-7.7&#10;&#9;&#9;c2.9-3.6,4.5-8.1,4.4-12.7C163.5,312.8,154.4,303.7,143.2,303.7L143.2,303.7z"/>
	<path class="st3_network-1-73 targetColor" d="M278.9,118.7c0,4.5-3.5,8.1-8,8.1s-8.1-3.5-8.1-8c0-4.5,3.5-8.1,8-8.1c0,0,0,0,0.1,0&#10;&#9;&#9;C275.3,110.7,278.9,114.2,278.9,118.7C278.9,118.7,278.9,118.7,278.9,118.7z" style="fill: rgb(255, 225, 0);"/>
	<path class="st1_network-1-73" d="M270.9,110.7c4.4,0,8,3.6,7.9,8.1c0,4.4-3.6,8-8.1,7.9c-4.4,0-7.9-3.6-7.9-8&#10;&#9;&#9;C262.8,114.2,266.4,110.7,270.9,110.7 M270.9,109.4c-5.2,0-9.3,4.2-9.3,9.3s4.2,9.3,9.3,9.3c5.2,0,9.3-4.2,9.3-9.3v0&#10;&#9;&#9;C280.2,113.6,276,109.4,270.9,109.4z"/>
	<path class="st3_network-1-73 targetColor" d="M299.9,374.2c0,6.8-5.5,12.3-12.3,12.3c-6.8,0-12.3-5.5-12.3-12.3c0-6.8,5.5-12.3,12.3-12.3c0,0,0,0,0,0&#10;&#9;&#9;C294.4,361.9,299.9,367.3,299.9,374.2C299.9,374.1,299.9,374.1,299.9,374.2z" style="fill: rgb(255, 225, 0);"/>
	<path class="st1_network-1-73" d="M287.6,361.9c6.8,0,12.3,5.5,12.3,12.3c0,6.8-5.5,12.3-12.3,12.3c-6.8,0-12.3-5.5-12.3-12.3c0,0,0,0,0,0&#10;&#9;&#9;C275.4,367.4,280.9,361.9,287.6,361.9C287.6,361.9,287.6,361.9,287.6,361.9 M287.6,360.6c-7.5,0-13.5,6.1-13.5,13.5&#10;&#9;&#9;c0,7.5,6.1,13.5,13.5,13.5c7.5,0,13.5-6.1,13.5-13.5C301.2,366.7,295.1,360.6,287.6,360.6z"/>
	<path class="st3_network-1-73 targetColor" d="M387,284.4c0,5.2-4.2,9.3-9.4,9.3c-5.2,0-9.3-4.2-9.3-9.4c0-5.2,4.2-9.3,9.3-9.3c5.1,0,9.3,4.1,9.3,9.2&#10;&#9;&#9;C387,284.3,387,284.3,387,284.4z" style="fill: rgb(255, 225, 0);"/>
	<path class="st1_network-1-73" d="M377.7,275c5.2,0,9.3,4.2,9.3,9.3c0,5.2-4.2,9.3-9.3,9.3c-5.2,0-9.3-4.2-9.3-9.3&#10;&#9;&#9;C368.3,279.2,372.5,275,377.7,275 M377.7,273.7c-5.9,0-10.6,4.8-10.6,10.6c0,2.4,0.8,4.7,2.3,6.6c3.6,4.6,10.3,5.4,14.9,1.8&#10;&#9;&#9;c0.6-0.5,1.2-1.1,1.7-1.7c3.7-4.6,2.9-11.3-1.7-14.9C382.4,274.6,380.1,273.8,377.7,273.7L377.7,273.7z"/>
	<path class="st3_network-1-73 targetColor" d="M381.6,180.6c0,7.3-5.9,13.2-13.3,13.2c-7.3,0-13.2-5.9-13.2-13.3c0-7.3,5.9-13.2,13.2-13.2&#10;&#9;&#9;c7.3-0.1,13.2,5.8,13.3,13C381.6,180.5,381.6,180.5,381.6,180.6z" style="fill: rgb(255, 225, 0);"/>
	<path class="st1_network-1-73" d="M368.3,167.4c7.3,0,13.2,5.9,13.2,13.2c0,7.3-5.9,13.2-13.2,13.2c-7.3,0-13.2-5.9-13.2-13.2&#10;&#9;&#9;C355.1,173.3,361,167.4,368.3,167.4 M368.3,166.1c-8,0-14.5,6.5-14.5,14.5s6.5,14.5,14.5,14.5c8,0,14.5-6.5,14.5-14.5&#10;&#9;&#9;C382.8,172.6,376.3,166.1,368.3,166.1z"/>
	<path class="st3_network-1-73 targetColor" d="M195.8,137.5c0,9.2-7.4,16.6-16.6,16.6s-16.6-7.4-16.6-16.6c0-9.2,7.4-16.6,16.6-16.6c0,0,0,0,0,0&#10;&#9;&#9;c9.1,0,16.6,7.3,16.6,16.4C195.8,137.4,195.8,137.4,195.8,137.5z" style="fill: rgb(255, 225, 0);"/>
	<path class="st1_network-1-73" d="M179.2,120.9c9.2,0,16.6,7.4,16.6,16.6c0,9.2-7.4,16.6-16.6,16.6s-16.6-7.4-16.6-16.6l0,0&#10;&#9;&#9;C162.6,128.3,170.1,120.9,179.2,120.9 M179.2,119.6c-9.9,0-17.9,8-17.9,17.9c0,9.9,8,17.9,17.9,17.9c9.9,0,17.9-8,17.9-17.9&#10;&#9;&#9;C197.1,127.6,189.1,119.6,179.2,119.6z"/>
	<path class="st3_network-1-73 targetColor" d="M134.1,197.3c0,7.3-5.9,13.2-13.2,13.2c-7.3,0-13.2-5.9-13.2-13.2c0-7.3,5.9-13.2,13.2-13.2c0,0,0,0,0,0&#10;&#9;&#9;c7.3,0,13.2,5.8,13.2,13.1C134.1,197.2,134.1,197.3,134.1,197.3z" style="fill: rgb(255, 225, 0);"/>
	<path class="st1_network-1-73" d="M120.9,184.1c7.3,0,13.2,5.9,13.2,13.2s-5.9,13.2-13.2,13.2c-7.3,0-13.2-5.9-13.2-13.2&#10;&#9;&#9;C107.7,190,113.6,184.1,120.9,184.1C120.9,184.1,120.9,184.1,120.9,184.1 M120.9,182.8c-8,0-14.5,6.5-14.5,14.5&#10;&#9;&#9;c0,8,6.5,14.5,14.5,14.5s14.5-6.5,14.5-14.5l0,0C135.3,189.3,128.9,182.8,120.9,182.8z"/>
	<path class="st3_network-1-73 targetColor" d="M304.7,287.5c0,10.5-8.5,19.1-19.1,19.1c-10.5,0-19.1-8.5-19.1-19.1c0-10.5,8.5-19.1,19.1-19.1&#10;&#9;&#9;c10.5,0,19,8.4,19.1,18.9C304.7,287.4,304.7,287.4,304.7,287.5z" style="fill: rgb(255, 225, 0);"/>
	<path class="st1_network-1-73" d="M285.6,268.4c10.5,0,19.1,8.5,19.1,19.1c0,10.5-8.5,19.1-19.1,19.1c-10.5,0-19.1-8.5-19.1-19.1&#10;&#9;&#9;S275.1,268.4,285.6,268.4C285.6,268.4,285.6,268.4,285.6,268.4 M285.6,267.1c-11.2,0-20.4,9.1-20.4,20.3s9.1,20.4,20.3,20.4&#10;&#9;&#9;c6.2,0,12.1-2.8,16-7.7c2.9-3.6,4.4-8,4.4-12.6C306,276.2,296.9,267.1,285.6,267.1L285.6,267.1z"/>
	<path class="st1_network-1-73" d="M377.7,285.8c-0.1,0-0.3,0-0.4-0.1l-1-0.7c-0.3-0.2-0.4-0.6-0.2-1s0.6-0.4,1-0.2c0,0,0,0,0.1,0l1,0.7&#10;&#9;&#9;c0.3,0.2,0.4,0.7,0.2,1C378.1,285.7,377.9,285.8,377.7,285.8L377.7,285.8z M373.3,282.8c-0.1,0-0.3,0-0.4-0.1l-3.4-2.4&#10;&#9;&#9;c-0.3-0.2-0.5-0.6-0.3-1c0.2-0.3,0.6-0.5,1-0.3c0,0,0.1,0.1,0.1,0.1l3.4,2.4c0.3,0.2,0.4,0.6,0.2,1c0,0,0,0,0,0&#10;&#9;&#9;C373.7,282.7,373.5,282.8,373.3,282.8z M366.4,277.9c-0.1,0-0.3,0-0.4-0.1l-3.4-2.4c-0.3-0.2-0.4-0.6-0.2-0.9c0,0,0,0,0-0.1&#10;&#9;&#9;c0.2-0.3,0.6-0.4,1-0.2c0,0,0,0,0,0l3.4,2.4c0.3,0.2,0.4,0.7,0.2,1C366.8,277.8,366.6,277.9,366.4,277.9L366.4,277.9z M359.5,273.1&#10;&#9;&#9;c-0.1,0-0.3,0-0.4-0.1l-3.4-2.4c-0.3-0.2-0.4-0.7-0.2-1c0.2-0.3,0.7-0.4,1-0.2l3.4,2.4c0.3,0.2,0.4,0.7,0.2,1&#10;&#9;&#9;C360,273,359.7,273.1,359.5,273.1z M352.6,268.3c-0.1,0-0.3,0-0.4-0.1l-3.4-2.4c-0.3-0.2-0.4-0.7-0.2-1c0.2-0.3,0.7-0.4,1-0.2&#10;&#9;&#9;l3.4,2.4c0.3,0.2,0.4,0.7,0.2,1c0,0,0,0,0,0C353,268.2,352.8,268.3,352.6,268.3L352.6,268.3z M345.7,263.5c-0.1,0-0.3,0-0.4-0.1&#10;&#9;&#9;l-3.4-2.4c-0.3-0.2-0.4-0.7-0.2-1c0,0,0,0,0,0c0.2-0.3,0.7-0.4,1-0.2c0,0,0,0,0,0l3.4,2.4c0.3,0.2,0.4,0.7,0.2,1c0,0,0,0,0,0&#10;&#9;&#9;C346.2,263.4,346,263.5,345.7,263.5z M338.9,258.6c-0.1,0-0.3,0-0.4-0.1l-3.5-2.4c-0.3-0.2-0.4-0.7-0.2-1c0,0,0,0,0,0&#10;&#9;&#9;c0.2-0.3,0.7-0.4,1-0.2c0,0,0,0,0,0l3.4,2.4c0.3,0.2,0.4,0.7,0.2,1c0,0,0,0,0,0C339.3,258.5,339.1,258.6,338.9,258.6L338.9,258.6z&#10;&#9;&#9; M332,253.8c-0.1,0-0.3,0-0.4-0.1l-3.4-2.4c-0.3-0.2-0.4-0.6-0.2-1c0,0,0,0,0,0c0.2-0.3,0.7-0.4,1-0.2c0,0,0,0,0,0l3.4,2.4&#10;&#9;&#9;c0.3,0.2,0.4,0.6,0.2,1c0,0,0,0,0,0C332.5,253.7,332.2,253.8,332,253.8z M325.1,249c-0.1,0-0.3,0-0.4-0.1l-3.4-2.4&#10;&#9;&#9;c-0.3-0.2-0.4-0.6-0.2-0.9c0,0,0,0,0-0.1c0.2-0.3,0.6-0.4,1-0.2c0,0,0,0,0,0l3.4,2.4c0.3,0.2,0.4,0.7,0.2,1c0,0,0,0,0,0&#10;&#9;&#9;C325.6,248.9,325.3,249,325.1,249z M318.2,244.2c-0.1,0-0.3,0-0.4-0.1l-3.4-2.4c-0.3-0.2-0.4-0.7-0.2-1c0.2-0.3,0.7-0.4,1-0.2&#10;&#9;&#9;l3.4,2.4c0.3,0.2,0.4,0.7,0.2,1C318.7,244.1,318.5,244.2,318.2,244.2z M311.3,239.4c-0.1,0-0.3,0-0.4-0.1l-3.4-2.4&#10;&#9;&#9;c-0.3-0.2-0.4-0.7-0.2-1c0.2-0.3,0.7-0.4,1-0.2l0,0l3.4,2.4c0.3,0.2,0.4,0.7,0.2,1c0,0,0,0,0,0&#10;&#9;&#9;C311.8,239.3,311.6,239.4,311.3,239.4L311.3,239.4z M304.5,234.5c-0.1,0-0.3,0-0.4-0.1l-3.4-2.4c-0.3-0.2-0.4-0.7-0.2-1&#10;&#9;&#9;c0,0,0,0,0,0c0.2-0.3,0.7-0.4,1-0.2c0,0,0,0,0,0l3.4,2.4c0.3,0.2,0.4,0.7,0.2,1c0,0,0,0,0,0C304.9,234.4,304.7,234.5,304.5,234.5&#10;&#9;&#9;L304.5,234.5z M297.6,229.7c-0.1,0-0.3,0-0.4-0.1l-3.4-2.4c-0.3-0.2-0.4-0.6-0.2-1c0.2-0.3,0.6-0.4,1-0.2c0,0,0,0,0.1,0l3.4,2.4&#10;&#9;&#9;c0.3,0.2,0.4,0.7,0.2,1c0,0,0,0,0,0C298,229.6,297.8,229.7,297.6,229.7L297.6,229.7z M290.7,224.9c-0.1,0-0.3,0-0.4-0.1l-3.4-2.4&#10;&#9;&#9;c-0.3-0.2-0.4-0.6-0.2-1c0,0,0,0,0,0c0.2-0.3,0.7-0.4,1-0.2c0,0,0,0,0,0l3.4,2.4c0.3,0.2,0.4,0.6,0.2,1c0,0,0,0,0,0&#10;&#9;&#9;C291.2,224.8,291,224.9,290.7,224.9L290.7,224.9z M283.8,220.1c-0.1,0-0.3,0-0.4-0.1l-3.4-2.4c-0.3-0.2-0.4-0.6-0.2-0.9&#10;&#9;&#9;c0,0,0,0,0-0.1c0.2-0.3,0.6-0.4,1-0.2c0,0,0,0,0,0l3.4,2.4c0.3,0.2,0.4,0.7,0.2,1C284.3,219.9,284.1,220,283.8,220.1L283.8,220.1z&#10;&#9;&#9; M277,215.2c-0.1,0-0.3,0-0.4-0.1l-3.4-2.4c-0.3-0.2-0.4-0.7-0.2-1c0.2-0.3,0.7-0.4,1-0.2l3.4,2.4c0.3,0.2,0.4,0.7,0.2,1&#10;&#9;&#9;C277.5,215.1,277.2,215.3,277,215.2z M270.1,210.4c-0.1,0-0.3,0-0.4-0.1l-3.4-2.4c-0.3-0.2-0.4-0.7-0.2-1c0.2-0.3,0.7-0.4,1-0.2&#10;&#9;&#9;l3.4,2.4c0.3,0.2,0.4,0.7,0.2,1c0,0,0,0,0,0C270.6,210.3,270.3,210.4,270.1,210.4L270.1,210.4z M263.2,205.6c-0.1,0-0.3,0-0.4-0.1&#10;&#9;&#9;l-3.4-2.4c-0.3-0.2-0.4-0.7-0.2-1c0,0,0,0,0,0c0.2-0.3,0.7-0.4,1-0.2c0,0,0,0,0,0l3.4,2.4c0.3,0.2,0.4,0.7,0.2,1c0,0,0,0,0,0&#10;&#9;&#9;C263.7,205.5,263.4,205.6,263.2,205.6L263.2,205.6z M256.4,200.8c-0.1,0-0.3,0-0.4-0.1l-3.4-2.4c-0.3-0.2-0.4-0.7-0.2-1&#10;&#9;&#9;c0,0,0,0,0,0c0.2-0.3,0.7-0.4,1-0.2c0,0,0,0,0,0l3.4,2.4c0.3,0.2,0.4,0.7,0.2,1c0,0,0,0,0,0C256.8,200.7,256.6,200.8,256.4,200.8&#10;&#9;&#9;L256.4,200.8z"/>
	<path class="st3_network-1-73 targetColor" d="M285.6,208.1c0,14.9-12.1,27-27,27s-27-12.1-27-27s12.1-27,27-27c14.9,0,27,12,27,26.8&#10;&#9;&#9;C285.6,207.9,285.6,208,285.6,208.1z" style="fill: rgb(255, 225, 0);"/>
	<path class="st1_network-1-73" d="M258.6,181c14.9,0,27,12.1,26.9,27s-12.1,27-27,26.9c-14.9,0-26.9-12.1-26.9-27&#10;&#9;&#9;C231.5,193.1,243.6,181,258.6,181C258.6,181,258.6,181,258.6,181 M258.6,179.7c-15.6,0-28.3,12.7-28.3,28.3s12.7,28.3,28.3,28.3&#10;&#9;&#9;c8.6,0,16.7-3.9,22.1-10.6c4-5,6.2-11.2,6.2-17.6C286.9,192.4,274.2,179.8,258.6,179.7L258.6,179.7z"/>
</g>
</svg>